<svg width="279" height="213" viewBox="0 0 279 213" fill="none" xmlns="http://www.w3.org/2000/svg">
<path fill-rule="evenodd" clip-rule="evenodd" d="M100.366 0.636915C98.9065 0.80344 97.4458 0.970054 95.9609 0.775605C97.9555 0.456208 99.9788 0.353669 101.996 0.469808C101.452 0.513124 100.909 0.575009 100.366 0.636915ZM95.9211 0.774664L95.1632 0.639687C99.8199 -0.0226838 104.539 -0.128709 109.22 0.323894C115.85 1.02334 122.34 2.69574 128.483 5.28736C134.494 7.83649 140.318 10.8061 145.912 14.1742C154.116 19.0271 162.376 23.7719 171.066 27.7289C178.2 31.034 185.916 32.8967 193.77 33.2102C196.891 33.3269 200.01 33.3912 203.21 33.2695C203.025 33.6119 202.774 33.618 202.492 33.6248C202.276 33.6299 202.043 33.6356 201.804 33.7906C202.109 33.7747 202.413 33.7881 202.701 33.8008C203.299 33.8271 203.826 33.8503 204.133 33.6015C204.617 33.1364 205.316 32.9721 205.956 33.1727C207.34 33.8189 208.703 33.603 210.06 33.388C210.678 33.2901 211.295 33.1924 211.911 33.1764C212.666 33.1569 213.399 32.9552 214.138 32.752C214.929 32.5344 215.727 32.315 216.564 32.3159C217.231 32.3168 217.895 32.2673 218.559 32.2178C219.943 32.1146 221.328 32.0113 222.749 32.3637C223.688 32.5962 224.85 32.2395 225.913 31.8925C226.896 31.5718 228.182 31.4152 229.08 31.7941C230.012 32.1873 230.928 32.1297 231.842 32.0723L231.842 32.0723C232.409 32.0367 232.975 32.0011 233.543 32.0733C237.176 32.4967 240.782 33.1376 244.339 33.9925C249.38 35.3078 254.27 37.1499 258.927 39.4882C266.704 43.2953 271.922 49.5179 275.6 57.164C279.284 64.8238 279.829 72.6506 276.622 80.6429L276.559 80.801C274.892 84.9574 273.225 89.113 271.196 93.107C269.902 95.7064 268.273 98.125 266.352 100.301C264.75 102.089 263.78 104.222 262.811 106.353L262.81 106.355C262.733 106.523 262.656 106.692 262.579 106.86C259.808 112.921 256.461 118.607 251.9 123.506C247.294 128.452 241.771 132.142 235.702 135.019C227.633 138.846 219.026 140.715 210.245 142.036L209.727 142.114L209.727 142.114C197.267 143.987 184.794 145.863 172.817 150.015C164.259 152.982 156.032 156.632 148.668 162.019C145.409 164.402 142.816 167.408 140.347 170.571C138.784 172.574 137.265 174.61 135.746 176.647C133.036 180.281 130.325 183.915 127.366 187.355C124.05 191.211 120.618 194.966 116.54 198.044C109.394 203.439 101.697 207.851 93.0222 210.228C83.7266 212.774 74.3211 213.636 64.8793 210.838C55.8934 208.175 48.4493 203.412 43.8895 194.931C41.3973 190.293 40.4161 185.196 40.1161 179.988C39.8452 175.287 39.8073 170.579 39.7694 165.871L39.7694 165.871L39.7694 165.871L39.7694 165.87L39.7694 165.87L39.7694 165.87L39.7694 165.87L39.7693 165.869L39.7693 165.869L39.7693 165.869C39.7301 161.001 39.691 156.132 39.3942 151.27C39.326 150.152 39.2653 149.034 39.2046 147.915C38.9134 142.549 38.6223 137.184 37.4979 131.9C35.8396 124.099 31.9829 117.474 26.6882 111.602C24.4508 109.117 22.1419 106.7 19.833 104.283L19.8302 104.28C18.4709 102.857 17.1116 101.434 15.7668 99.9975C11.4138 95.3463 7.36184 90.462 4.33298 84.8049C-0.989527 74.8641 -0.701049 64.862 4.01596 54.8285C6.80081 49.009 10.4481 43.6447 14.8343 38.9172C16.4118 37.1865 18.0942 35.5694 19.7718 33.9569C20.0644 33.6756 20.3568 33.3945 20.6486 33.1129C22.4467 31.3761 24.413 29.823 26.5186 28.4765C27.3926 27.9183 28.2029 27.2648 29.0165 26.6087L29.0167 26.6085L29.0169 26.6083C29.7688 26.002 30.5235 25.3934 31.3337 24.8557C37.43 20.7799 43.791 17.1158 50.3743 13.8879C54.3294 11.9649 58.4043 10.3364 62.486 8.74113C65.7508 7.46543 69.094 6.38079 72.4927 5.42791C73.3218 5.19542 74.1509 4.95586 74.9807 4.71607C76.9567 4.14508 78.937 3.57286 80.9332 3.09215C81.723 2.90203 82.5422 2.86234 83.3675 2.82237C84.1308 2.78539 84.8994 2.74815 85.655 2.59145C88.7757 1.89176 91.9436 1.42328 95.1331 1.18981C95.4524 1.17308 95.7716 1.12805 95.9211 0.774664ZM73.3225 206.587L73.3823 206.774C73.7922 206.773 74.2027 206.78 74.6133 206.787C75.5141 206.802 76.4149 206.817 77.3086 206.744C77.6352 206.718 77.9618 206.692 78.2884 206.666C82.1998 206.358 86.0981 206.05 89.7591 204.258C90.2273 204.029 90.7635 203.91 91.3122 203.789C91.9821 203.642 92.6707 203.49 93.2773 203.127C94.0267 202.677 94.8421 202.407 95.6651 202.133C96.5009 201.856 97.3446 201.576 98.1352 201.103C100.555 199.658 103.041 198.272 105.577 197.022C106.704 196.467 107.694 195.733 108.683 195.001L108.683 195.001L108.684 195.001C109.17 194.64 109.657 194.28 110.159 193.942C111.317 193.068 112.426 192.131 113.482 191.135C115.544 189.405 117.456 187.504 119.198 185.451C120.943 183.366 122.61 181.199 124.243 179.014C124.88 178.163 125.503 177.301 126.125 176.438C127.08 175.116 128.034 173.794 129.038 172.512C131.004 170.04 132.808 167.444 134.439 164.738C134.859 164.029 135.399 163.444 135.94 162.858L135.94 162.858C136.431 162.326 136.922 161.793 137.324 161.168C138.004 159.991 138.82 158.9 139.757 157.917C141.518 156.216 143.404 154.649 145.398 153.229C152.102 148.53 159.465 145.146 167.157 142.457C167.523 142.329 167.888 142.197 168.253 142.065L168.253 142.065L168.253 142.065L168.253 142.065L168.253 142.065L168.254 142.065L168.254 142.065L168.254 142.065L168.254 142.065C170.256 141.34 172.268 140.613 174.455 140.556C175.263 140.58 176.068 140.439 176.822 140.144C178.208 139.503 179.686 139.083 181.202 138.899C182.955 138.665 184.683 138.305 186.411 137.945L186.411 137.945C187.821 137.651 189.232 137.356 190.658 137.131C195.799 136.317 200.943 135.549 206.119 135.041C207.561 134.9 208.988 134.666 210.416 134.432L210.416 134.432L210.416 134.432L210.416 134.432L210.416 134.432L210.416 134.432L210.416 134.432L210.416 134.432L210.416 134.432L210.416 134.432C212.105 134.155 213.794 133.878 215.511 133.754C216.96 133.648 218.384 133.186 219.807 132.725C220.375 132.541 220.942 132.358 221.511 132.196C230.93 129.529 239.408 125.202 246.052 117.829C246.439 117.399 246.916 117.165 247.386 116.935C247.937 116.664 248.479 116.399 248.856 115.826C251.994 111.05 255.196 106.318 258.598 101.721C260.938 98.5594 262.5 94.9929 264.062 91.4258C264.886 89.5433 265.711 87.6607 266.65 85.8373L266.697 85.7462L266.738 85.6645L266.739 85.6634C267.201 84.7604 267.226 84.7119 268.374 84.1308C268.463 84.0853 268.507 83.9424 268.55 83.8049C268.566 83.7536 268.581 83.703 268.599 83.6585C269.028 82.579 269.488 81.5113 269.948 80.4437C270.888 78.2605 271.828 76.0777 272.506 73.7941C272.61 73.4459 272.718 73.0983 272.826 72.7505C273.379 70.9728 273.935 69.1883 273.865 67.2919C273.571 59.3959 269.98 53.2453 263.748 48.5849C260.234 45.9577 256.248 44.1806 252.184 42.5898C243.852 39.3003 234.919 37.8156 225.973 38.2337C222.363 38.3962 218.761 38.6607 215.158 38.9253C209.774 39.3206 204.389 39.716 198.98 39.771C190.168 39.9272 181.415 38.3153 173.235 35.0302C163.323 31.0181 154.05 25.7698 144.817 20.4384C138.486 16.7837 132.036 13.3615 125.133 10.8938C115.426 7.42363 105.46 6.61608 95.261 7.95988C89.1027 8.75965 83.0067 9.98217 77.0159 11.6188C60.6043 16.1325 45.1689 22.8699 30.933 32.2857C24.4408 36.5799 18.4908 41.4648 13.7408 47.7012C10.5391 51.9075 7.65733 56.2943 5.89249 61.3282C4.85726 64.2819 4.2558 67.2914 4.88327 70.4237C5.64563 74.2639 7.09344 77.9351 9.15719 81.2608C12.899 87.3016 17.7854 92.3717 22.6733 97.4434C23.2678 98.0603 23.8624 98.6772 24.4549 99.2959C29.8136 104.892 35.0597 110.542 38.3065 117.783C40.1946 121.902 41.4829 126.271 42.132 130.755C43.6629 141.827 43.572 152.972 43.481 164.112L43.481 164.113L43.4704 165.429C43.4584 166.935 43.4095 168.442 43.3605 169.949L43.3605 169.949C43.2357 173.793 43.1108 177.635 43.5996 181.474C44.0563 185.058 44.8759 188.529 46.6845 191.701C49.9534 197.257 55.059 201.493 61.1174 203.677C61.2934 203.72 61.4595 203.796 61.607 203.902C63.006 205.152 64.7268 205.308 66.451 205.463L66.4518 205.463C66.6228 205.479 66.7939 205.494 66.9647 205.511C67.0839 205.522 67.2119 205.528 67.3419 205.533C67.7477 205.55 68.1719 205.567 68.4022 205.78C69.0047 206.337 69.6974 206.298 70.403 206.257C70.9752 206.224 71.5559 206.191 72.1041 206.475C72.402 206.629 72.9013 206.56 73.4436 206.486C73.8813 206.426 74.347 206.362 74.7575 206.408L73.3225 206.587ZM200.143 38.4378C195.132 38.5806 190.121 38.1207 185.219 37.0677C190.819 37.8399 196.476 38.1099 202.124 37.8745C206.924 37.7253 211.71 37.3588 216.497 36.9923C218.828 36.8138 221.159 36.6353 223.492 36.4819C225.769 36.2912 228.059 36.3007 230.335 36.5101C229.779 36.9876 229.211 36.889 228.659 36.7932C228.389 36.7464 228.123 36.7003 227.865 36.7222C226.2 36.863 224.532 36.9665 222.864 37.07C221.29 37.1676 219.716 37.2653 218.146 37.3942C212.152 37.886 206.156 38.3098 200.143 38.4378ZM77.1027 211.056C71.5192 210.792 66.0001 209.745 60.7069 207.945C65.824 210.347 71.4633 211.417 77.1027 211.056ZM170.722 148.338C164.53 150.124 158.639 152.826 153.243 156.353C158.921 153.358 164.783 150.765 170.722 148.338ZM240.503 130.2C245.423 127.216 249.996 123.831 253.206 118.918C249.416 123.153 245.154 126.938 240.503 130.2ZM116.935 6.95034L116.935 6.9503C111.598 6.15672 106.261 5.36314 100.827 5.79982C106.817 4.98746 112.912 5.46876 118.702 7.21138C118.118 7.12623 117.535 7.03946 116.951 6.95268L116.935 6.95034ZM85.0788 210.691C84.9538 210.553 84.8682 210.45 84.8076 210.377C84.721 210.272 84.6852 210.229 84.6575 210.234C82.6123 210.63 80.531 210.807 78.4483 210.763C78.358 210.746 78.2646 210.767 78.1901 210.821C78.1156 210.875 78.0665 210.957 78.0544 211.048C78.0238 211.361 78.2719 211.432 78.4941 211.408C80.15 211.235 81.8051 211.052 83.5668 210.858L83.5692 210.858L83.5722 210.857C84.0653 210.803 84.5667 210.747 85.0788 210.691ZM152.216 149.94C149.936 150.887 147.817 152.182 145.932 153.777L152.216 149.94ZM210.864 34.1072C208.441 33.8032 207.308 34.0833 206.958 35.2328C207.537 34.1768 208.305 34.2602 209.109 34.3476C209.694 34.4111 210.299 34.4768 210.864 34.1072ZM215.319 32.8031L215.341 32.6318L220.671 32.3525L220.68 32.5222L215.319 32.8031Z" fill="#F5A623"/>
</svg>
