<svg width="91" height="99" viewBox="0 0 91 99" fill="none" xmlns="http://www.w3.org/2000/svg">
<path fill-rule="evenodd" clip-rule="evenodd" d="M89.6631 3.3629L89.6631 3.3629C89.6011 3.31305 89.5364 3.26106 89.4684 3.20551C89.7971 2.59085 89.7925 2.42171 89.3271 2.08544L89.2973 2.06378C89.0733 1.90141 88.8355 1.7289 88.5046 1.75721C88.3441 1.77105 88.1814 1.75556 88.0184 1.74004C87.863 1.72524 87.7074 1.71043 87.5534 1.721C86.9184 1.76508 86.3032 1.88855 85.8175 2.35614C85.6616 2.50644 85.4982 2.64902 85.3289 2.79672L85.3288 2.79679C85.2506 2.86504 85.1711 2.93437 85.0906 3.00607L85.0762 3.26612C85.0745 3.29749 85.0731 3.32889 85.0717 3.3603L85.0717 3.36032L85.0717 3.36035L85.0717 3.36037L85.0717 3.36039L85.0717 3.36041L85.0717 3.36043L85.0717 3.36045L85.0717 3.36048L85.0717 3.3605L85.0717 3.36052L85.0717 3.36054L85.0717 3.36056L85.0717 3.36059L85.0716 3.36061L85.0716 3.36063L85.0716 3.36065L85.0716 3.36067L85.0716 3.36069L85.0716 3.36072L85.0716 3.36074L85.0716 3.36076L85.0716 3.36078L85.0716 3.36083L85.0716 3.36085L85.0716 3.36086L85.0716 3.36088L85.0716 3.3609L85.0716 3.36091L85.0716 3.36093L85.0716 3.36094L85.0716 3.36096L85.0716 3.36097L85.0716 3.36099L85.0716 3.361L85.0716 3.36102L85.0716 3.36103L85.0716 3.36105L85.0716 3.36106L85.0716 3.36108L85.0716 3.36109L85.0716 3.36111L85.0716 3.36113L85.0716 3.36114L85.0716 3.36116C85.0688 3.4242 85.0659 3.48727 85.0606 3.55011C85.0193 4.04075 85.0178 4.04116 84.4205 4.20457L84.4067 4.20836C84.3507 4.22361 84.2944 4.2543 84.2391 4.28441C84.1555 4.32998 84.0742 4.37422 84.0004 4.36169C83.5627 4.28701 83.326 4.52875 83.0995 4.82866L84.1742 5.22233L84.1387 5.36016L83.0811 5.30189C82.8951 5.94844 83.3243 6.03663 83.7247 6.11891C83.7496 6.12402 83.7743 6.12911 83.7988 6.13431C83.5991 6.51847 83.5529 6.82148 83.931 7.03307C84.2351 7.20327 84.0936 7.32629 83.9493 7.45172L83.9492 7.45174C83.9294 7.46898 83.9095 7.48627 83.8907 7.50372C84.4544 7.92015 85.1447 8.13161 85.8462 8.1027C86.3911 8.1018 86.9359 8.13823 87.4809 8.17468L87.4809 8.17468L87.4809 8.17468L87.4809 8.17468L87.4809 8.17468L87.4809 8.17468L87.4809 8.17468L87.4809 8.17468L87.481 8.17469L87.481 8.17469L87.481 8.17469L87.481 8.17469L87.481 8.17469L87.481 8.17469L87.481 8.17469L87.481 8.17469L87.481 8.17469L87.4811 8.17469L87.4811 8.17469L87.4811 8.17469L87.4811 8.17469L87.4811 8.17469L87.4811 8.17469C87.7617 8.19346 88.0423 8.21223 88.323 8.2259C88.4869 8.22637 88.6506 8.21858 88.8137 8.20257L88.8147 8.105L87.902 7.96275C88.142 7.8694 88.4013 7.83551 88.6575 7.864C88.9034 7.8724 89.1496 7.86195 89.3939 7.83273C89.6164 7.78311 89.8352 7.71825 90.0486 7.63862L89.6161 7.4623C90.2239 7.17137 90.2237 7.17051 90.111 6.5638L90.1101 6.559C90.0948 6.47596 90.0727 6.34295 90.1138 6.30968C90.3418 6.12857 90.3005 5.99373 90.1521 5.76317C90.1175 5.70925 90.1658 5.61238 90.219 5.50567C90.268 5.40729 90.3213 5.30053 90.3175 5.21135C90.2953 4.97786 90.2216 4.75207 90.1015 4.55008C90.0282 4.41583 90.0915 4.31358 90.1532 4.21398C90.2101 4.12212 90.2656 4.03252 90.2112 3.92217C90.1764 3.83869 90.1265 3.76228 90.0639 3.69675C89.9392 3.58479 89.8084 3.47969 89.6631 3.3629ZM79.9388 20.7978C79.9101 20.686 79.9905 20.5462 80.1483 20.2717C80.0707 20.2125 80.0097 20.136 79.9481 20.0589L79.9481 20.0588L79.948 20.0588C79.8167 19.8943 79.6828 19.7266 79.3809 19.715C78.9846 19.6935 78.5948 19.821 78.2888 20.072C78.2533 20.0999 78.2149 20.1272 78.1761 20.1548C78.0518 20.2432 77.9237 20.3344 77.8731 20.4546C77.7245 20.8071 77.447 21.0278 77.1703 21.248C77.0357 21.355 76.9014 21.4619 76.782 21.5837C76.3586 22.0153 75.7718 22.1378 75.2151 22.1476C73.8636 22.1714 72.7705 22.8205 71.6782 23.4692L71.5898 23.5216C71.2364 23.732 71.1541 24.1165 71.0704 24.5069C71.0562 24.5735 71.0418 24.6404 71.0261 24.7065L71.0184 24.739C70.848 25.4568 70.808 25.6255 71.3209 25.9309L71.3773 25.9643C71.7005 26.1549 71.911 26.2791 71.541 26.6543C71.5127 26.6822 71.583 26.8151 71.6374 26.9181C71.647 26.9362 71.6561 26.9535 71.6641 26.969C71.6857 27.0108 71.7235 27.0613 71.7581 27.1076C71.8047 27.1699 71.8456 27.2245 71.8334 27.24C71.5327 27.6125 71.8987 27.6626 72.0819 27.6877L72.0912 27.689C72.1532 27.6975 72.2158 27.7066 72.2787 27.7158L72.2787 27.7158C72.6932 27.7761 73.1222 27.8385 73.5123 27.7546C73.6497 27.7249 73.7933 27.7086 73.9376 27.6922C74.2988 27.6511 74.6647 27.6095 74.9512 27.3569C75.1245 27.1752 75.3762 27.0893 75.6253 27.1268C75.7437 27.1219 75.8581 27.0833 75.955 27.0157C76.0238 26.9787 76.0929 26.942 76.1619 26.9052C76.4614 26.746 76.7611 26.5866 77.0447 26.4029C77.235 26.2796 77.4167 26.1431 77.5983 26.0067L77.5983 26.0067L77.5983 26.0067L77.5983 26.0067L77.5983 26.0066L77.5983 26.0066L77.5984 26.0066L77.5984 26.0066L77.5984 26.0066L77.5984 26.0066L77.5984 26.0066L77.5984 26.0066L77.5984 26.0066L77.5985 26.0066L77.5985 26.0065L77.5985 26.0065L77.5985 26.0065L77.5985 26.0065L77.5985 26.0065L77.5986 26.0065L77.5986 26.0065L77.5986 26.0065L77.5986 26.0065L77.5986 26.0064L77.5986 26.0064L77.5987 26.0064C77.7844 25.8668 77.9702 25.7273 78.165 25.6019C78.4403 25.4246 78.6997 25.2233 78.9558 25.0246L78.9558 25.0246L78.9558 25.0246L78.9559 25.0246L78.9559 25.0246L78.9559 25.0245L78.9559 25.0245L78.956 25.0245C79.0068 24.985 79.0575 24.9457 79.1082 24.9067C79.1662 24.862 79.2255 24.8179 79.2851 24.7736L79.2852 24.7736L79.2854 24.7735C79.6886 24.4739 80.1046 24.1649 80.2151 23.5976C80.3135 23.1962 80.4337 22.8004 80.5751 22.4119C80.3658 22.183 80.3949 21.9228 80.4239 21.6636C80.4425 21.4972 80.4611 21.3312 80.4164 21.1743C80.116 20.9995 79.9687 20.9138 79.9388 20.7978ZM13.8339 87.4986C14.6576 87.6742 15.3806 88.0188 15.8541 88.6939C16.0008 88.6842 16.135 88.6731 16.2607 88.6627C16.5117 88.6419 16.729 88.624 16.9453 88.6253C17.3708 88.6295 17.8088 88.5376 17.937 88.137C18.0898 87.6591 18.2944 87.3804 18.8152 87.3867C18.8754 87.3798 18.9291 87.3458 18.9608 87.2945C19.193 86.8345 19.5798 86.5286 19.9666 86.2228L19.9666 86.2228L19.9667 86.2227L19.9667 86.2227L19.9668 86.2226L19.9668 86.2226L19.9669 86.2226L19.9669 86.2225L19.967 86.2225L19.967 86.2224L19.9671 86.2224L19.9671 86.2223L19.9671 86.2223L19.9672 86.2223L19.9672 86.2222L19.9673 86.2222L19.9673 86.2221L19.9674 86.2221L19.9674 86.222L19.9675 86.222L19.9675 86.2219L19.9676 86.2219L19.9676 86.2219L19.9677 86.2218L19.9677 86.2218C20.1691 86.0626 20.3704 85.9035 20.5497 85.7225L20.6206 85.6513C21.0242 85.2467 21.0458 85.225 21.0337 84.4606C21.0313 84.3071 21.0171 84.1537 21.0007 83.9775L21.0007 83.9774C20.9926 83.8901 20.984 83.7972 20.9761 83.696C21.3819 83.3827 21.8073 83.0952 22.2498 82.8353C22.3755 82.7692 22.49 82.6793 22.6048 82.5892C22.8462 82.3996 23.0886 82.2093 23.4385 82.2391C23.4925 81.9553 23.7042 81.8037 23.8962 81.6661L23.8962 81.6661C24.0212 81.5765 24.1378 81.493 24.1973 81.3828L24.0578 80.4092L23.529 80.3801L23.6703 80.2344L23.7194 80.184L23.5041 79.8129C22.0443 80.3919 20.6433 81.1073 19.3197 81.9495C19.1231 82.089 18.8614 82.0981 18.6552 81.9724C18.8653 81.8465 19.0682 81.7205 19.2674 81.5967L19.2676 81.5966C19.7062 81.3241 20.1269 81.0628 20.5665 80.8385C21.1298 80.5513 21.7093 80.2952 22.2898 80.0385L22.2903 80.0383L22.2907 80.0381C22.5411 79.9275 22.7918 79.8167 23.0414 79.7033C22.7062 79.173 22.7045 79.1736 22.2393 79.3456L22.2184 79.3534C20.8632 79.8545 19.5986 80.5436 18.3377 81.2308L18.3337 81.233L18.3272 81.2365L17.9894 81.4204C17.9136 81.4616 17.8377 81.5028 17.7618 81.5438C16.3369 82.3142 14.9362 83.1441 13.776 84.3176C13.5493 84.5468 13.3876 84.806 13.2261 85.0648L13.226 85.0649C13.1526 85.1826 13.0792 85.3002 12.9998 85.4149C12.9201 85.5711 12.9253 85.7569 13.0135 85.9086C13.1835 86.093 13.2146 86.2895 13.2481 86.5007C13.2566 86.5545 13.2653 86.6093 13.2765 86.665L13.2856 86.7117L13.2918 86.7445L13.2919 86.7449L13.292 86.7458C13.3494 87.0496 13.4174 87.4097 13.8339 87.4986ZM40.6026 79.7776C40.7622 79.6355 40.9203 79.5012 41.075 79.3698L41.0751 79.3697C41.4036 79.0907 41.7166 78.8248 41.9946 78.5266C42.9443 77.5085 44.1682 76.9607 45.3918 76.413C45.6797 76.2841 45.9677 76.1552 46.252 76.0202C46.8172 75.7521 47.4211 75.8102 48.018 75.8677C48.1295 75.8784 48.2407 75.8891 48.3514 75.8977C48.4342 75.904 48.5112 75.9866 48.5906 76.0718L48.5907 76.0718C48.6281 76.112 48.6661 76.1528 48.7056 76.1864L48.7038 76.1872L48.691 76.1928L48.6846 76.1955L48.6671 76.2031L48.654 76.2089L48.6479 76.2115C48.3944 76.3218 48.1481 76.4289 47.7998 76.5809L49.1032 76.6527C49.1416 76.7417 49.1738 76.8301 49.2049 76.9155C49.2729 77.1019 49.3358 77.2742 49.4455 77.4082C49.5983 77.6133 49.6278 77.8844 49.5227 78.1171C49.4702 78.2852 49.3494 78.4323 49.223 78.5862C49.1668 78.6546 49.1095 78.7244 49.0565 78.798C48.3804 78.6149 47.7928 78.8512 47.1777 79.1498C47.2009 79.2578 47.1859 79.3708 47.1707 79.4857C47.1434 79.6909 47.1154 79.9023 47.302 80.1036C47.361 80.2166 47.3596 80.3514 47.2983 80.4632C47.1848 80.6291 47.0824 80.8049 46.98 80.9808L46.98 80.9809L46.9799 80.981L46.9799 80.9811L46.9798 80.9812L46.9798 80.9813L46.9797 80.9814L46.9797 80.9815L46.9796 80.9816L46.9796 80.9816L46.9795 80.9817L46.9795 80.9818L46.9794 80.9819L46.9794 80.982L46.9793 80.9821L46.9793 80.9822L46.9792 80.9823L46.9791 80.9824L46.9791 80.9824L46.979 80.9825L46.979 80.9826L46.9789 80.9827L46.9789 80.9828L46.9788 80.9829C46.6474 81.5522 46.3154 82.1225 45.6095 82.3651L45.5614 82.3814C45.4039 82.4345 45.2206 82.4964 45.1483 82.613C45.0977 82.6946 45.0101 82.7067 44.923 82.7188C44.8026 82.7355 44.6833 82.752 44.6646 82.9517C44.6469 83.14 44.5166 83.1155 44.3839 83.0906C44.3175 83.0781 44.2504 83.0655 44.1967 83.0795C44.0009 83.144 43.8007 83.1943 43.5976 83.2303C43.4074 83.2376 43.2168 83.2294 43.0279 83.2055C42.4313 82.4719 41.6637 81.8939 40.7917 81.5217L40.6026 79.7776ZM78.6938 57.844L78.6937 57.8438L78.6936 57.8437L78.6936 57.8437C78.4966 57.5212 78.3027 57.2037 78.1261 56.8772C78.1118 56.8509 78.1714 56.7847 78.2467 56.7012L78.2468 56.7012C78.2868 56.6568 78.3312 56.6076 78.3712 56.5569C78.2196 56.4743 78.0743 56.3807 77.9366 56.2768C77.8008 56.1434 77.6719 56.0033 77.5505 55.8568L77.5156 55.8194C77.2637 55.5499 77.0138 55.2826 77.4365 54.928C77.4572 54.9106 77.4549 54.8684 77.4525 54.824C77.4511 54.7964 77.4495 54.768 77.4535 54.7442C77.4719 54.6326 77.48 54.5218 77.4881 54.4115C77.512 54.0862 77.5355 53.7663 77.8221 53.4478C77.9447 53.3117 78.0541 53.1593 78.1647 53.0051C78.3333 52.7703 78.5048 52.5313 78.7301 52.3395C79.0616 52.0192 79.4375 51.7477 79.8464 51.5334C80.5146 51.2299 81.175 50.9308 81.9307 51.0935C82.1449 51.1734 82.3488 51.2785 82.5379 51.4066L82.02 51.9684C82.1592 52.0187 82.3056 52.0552 82.4535 52.0922C82.8441 52.1897 83.2456 52.2899 83.5561 52.6527L83.0799 53.2186L83.7756 53.2569C83.7984 53.4533 83.832 53.6448 83.8653 53.8343C83.9387 54.2515 84.0103 54.659 83.9606 55.0874C83.9362 55.4181 83.7928 55.729 83.5567 55.9632C83.4554 56.0575 83.363 56.1599 83.2704 56.2625C83.0915 56.4607 82.9118 56.6598 82.6657 56.8035C82.495 56.9027 82.3369 57.0234 82.1772 57.1452C82.0212 57.2642 81.8638 57.3843 81.6919 57.4866C81.3345 57.699 80.9456 57.8139 80.5573 57.9286L80.5573 57.9286C80.3248 57.9973 80.0926 58.0659 79.8674 58.1554C79.6698 58.2341 79.4257 58.1971 79.184 58.1605C79.075 58.144 78.9665 58.1276 78.863 58.1219C78.8065 58.0286 78.75 57.9361 78.6938 57.844ZM60.7766 16.8195L62.8251 16.9324L62.8766 16.7599C62.7321 16.7095 62.5857 16.6429 62.4391 16.5764L62.4391 16.5764L62.4391 16.5764L62.4391 16.5764L62.4391 16.5764L62.4391 16.5764L62.439 16.5764L62.439 16.5764L62.439 16.5764L62.439 16.5763L62.439 16.5763L62.439 16.5763L62.4389 16.5763L62.4389 16.5763L62.4389 16.5763L62.4389 16.5763L62.4389 16.5763L62.4389 16.5763L62.4388 16.5763L62.4388 16.5763L62.4388 16.5763C62.1059 16.4251 61.773 16.2739 61.4637 16.3111C61.3347 16.3269 61.2029 16.3365 61.0699 16.3461C60.6476 16.3769 60.2128 16.4085 59.8148 16.6431C59.5803 16.7814 59.3254 16.8882 59.0706 16.9949L59.0706 16.9949L59.0706 16.9949L59.0706 16.9949L59.0705 16.9949L59.0705 16.9949L59.0705 16.9949L59.0705 16.9949L59.0704 16.9949L59.0704 16.995L59.0704 16.995L59.0704 16.995L59.0704 16.995L59.0703 16.995L59.0703 16.995L59.0703 16.995L59.0703 16.995L59.0702 16.995L59.0702 16.995L59.0702 16.9951L59.0702 16.9951C58.4794 17.2424 57.8897 17.4894 57.5571 18.1279C57.0866 18.2139 56.9032 18.5781 56.7271 18.9278L56.7271 18.9279L56.727 18.928C56.6797 19.0219 56.633 19.1148 56.5813 19.2009C56.2469 19.7584 55.9184 20.3567 56.3194 21.0555C56.5862 21.5204 56.8311 21.9977 57.0734 22.4701L57.0735 22.4702C57.1794 22.6767 57.2848 22.8822 57.3914 23.0853C57.6935 23.0815 57.9955 23.1008 58.2947 23.1429C58.8845 23.273 59.404 23.0322 59.8276 22.7393C60.075 22.5678 60.3737 22.485 60.6747 22.5042C60.9729 22.3677 61.1613 22.1519 61.344 21.9424C61.5055 21.7573 61.6625 21.5773 61.8871 21.4615C62.1063 21.3049 62.2418 21.0576 62.2554 20.7896C62.2553 20.6329 62.2805 20.4748 62.3059 20.316C62.3632 19.9565 62.4211 19.5938 62.1869 19.2378C62.1511 19.1834 62.1974 19.081 62.2473 18.9708C62.2817 18.8947 62.3179 18.8148 62.3298 18.7445C62.339 18.69 62.3119 18.6294 62.2759 18.5491C62.2568 18.5064 62.2352 18.4582 62.2152 18.4023C62.4022 18.4384 62.5939 18.4444 62.7828 18.4201C62.9374 18.3734 63.1772 18.2027 63.1683 18.1046C63.127 17.8153 63.0412 17.534 62.9141 17.2706C62.8286 17.0709 62.6508 17.0752 62.478 17.0794L62.478 17.0794L62.478 17.0794L62.4779 17.0794L62.4779 17.0794L62.4779 17.0794L62.4779 17.0794C62.4267 17.0807 62.3759 17.0819 62.3281 17.0778C62.2343 17.0696 62.1404 17.0631 62.0464 17.0566L62.0462 17.0566L62.046 17.0566L62.0458 17.0566L62.0456 17.0566L62.0454 17.0565L62.0452 17.0565L62.045 17.0565L62.0448 17.0565L62.0446 17.0565L62.0444 17.0565L62.0441 17.0564L62.0439 17.0564L62.0437 17.0564L62.0435 17.0564L62.0433 17.0564L62.0431 17.0563L62.0429 17.0563L62.0427 17.0563L62.0425 17.0563L62.0423 17.0563C61.617 17.0268 61.1909 16.9972 60.7766 16.8195ZM51.4828 34.7226L52.862 33.4952C53.2174 33.4959 53.5724 33.5211 53.9244 33.5707C54.0605 33.5967 54.1868 33.7999 54.2592 33.9505C54.2784 33.9902 54.2181 34.0679 54.1579 34.1453C54.1317 34.179 54.1055 34.2127 54.0859 34.2432C54.1248 34.2655 54.1658 34.2867 54.2071 34.3081C54.4494 34.4333 54.7032 34.5644 54.6037 34.958C54.5735 35.0462 54.5775 35.1424 54.6148 35.2279C54.7906 35.4707 54.9698 35.7338 54.8702 36.026C54.8363 36.1256 54.8046 36.2274 54.7727 36.3298L54.7726 36.3301L54.7725 36.3305C54.6365 36.7668 54.4975 37.2128 54.1799 37.5322C53.4042 38.3118 52.5675 39.0472 51.4899 39.3973C50.8494 39.6177 50.1889 39.7763 49.5177 39.8706C49.1655 39.9183 48.8168 39.7612 48.6206 39.4664C48.4856 39.2505 48.3459 39.0373 48.2063 38.8242L48.2062 38.824C47.9836 38.4844 47.7612 38.1449 47.558 37.7944C47.4376 37.5884 47.3846 37.3504 47.4061 37.1132C47.6022 35.7409 48.3091 34.7943 49.8986 34.4735C49.9742 34.4582 50.0512 34.4341 50.1281 34.41L50.1282 34.41L50.1282 34.41L50.1283 34.41L50.1283 34.41L50.1284 34.41L50.1284 34.4099L50.1285 34.4099L50.1285 34.4099L50.1286 34.4099C50.2871 34.3603 50.4449 34.311 50.5875 34.3396C50.899 34.4346 51.1992 34.563 51.4828 34.7226ZM17.4398 35.1067L16.8593 35.1876C17.1567 35.3387 17.4133 35.4026 17.7213 35.1917C17.9183 35.0571 18.1409 34.9709 18.3653 34.884C18.6677 34.7668 18.9733 34.6484 19.2233 34.4088C19.3662 34.249 19.5273 34.1064 19.7035 33.9838C20.8611 33.3694 21.5507 32.3704 22.1187 31.2561L22.1413 31.2125C22.2078 31.0847 22.2968 30.914 22.2527 30.8534C22.1113 30.66 22.177 30.5123 22.2467 30.3558C22.2633 30.3184 22.2802 30.2805 22.2945 30.2413C22.3359 30.1276 22.3714 29.9429 22.3116 29.8738C22.1099 29.6405 22.0182 29.3667 21.9257 29.0907L21.9256 29.0904L21.9255 29.0901C21.9149 29.0583 21.9042 29.0265 21.8934 28.9947C21.8839 28.9671 21.8744 28.9396 21.8646 28.912C21.8382 28.8382 21.7779 28.6989 21.5992 28.8162C21.5112 28.8735 21.3909 28.8815 21.2537 28.8907C21.1872 28.8951 21.1166 28.8998 21.0439 28.9106C21.3026 28.459 21.4264 28.0804 21.0533 27.7949C20.9247 27.8363 20.7955 27.8693 20.6692 27.9015C20.3996 27.9703 20.1433 28.0357 19.9351 28.1728C19.7346 28.3047 19.516 28.4114 19.2972 28.5181C18.8295 28.7465 18.3611 28.9751 18.0671 29.4512C17.0294 29.9464 16.4341 30.8485 15.8365 31.7539L15.8364 31.7541L15.7732 31.8499L15.7037 31.9548L15.6851 31.9828C15.4518 32.2644 15.4287 32.6637 15.6279 32.9703C15.6325 32.9783 15.6374 32.9863 15.6423 32.9945L15.6543 33.0139C15.7317 33.1397 15.8255 33.292 15.6276 33.4865C15.5664 33.5808 15.5507 33.6973 15.5847 33.8044C15.6187 33.9115 15.6989 33.9979 15.8035 34.0403C16.0816 34.1318 16.284 34.3385 16.4872 34.5459C16.749 34.8132 17.0121 35.0817 17.4398 35.1067ZM58.1992 95.2354L58.7412 95.3434C58.7222 95.3668 58.707 95.3895 58.6935 95.4095C58.6687 95.4464 58.6497 95.4747 58.624 95.4835C58.4582 95.5405 58.2939 95.602 58.1296 95.6635L58.1295 95.6635L58.1295 95.6636L58.1294 95.6636L58.1293 95.6636L58.1292 95.6637L58.129 95.6637L58.1289 95.6638L58.1287 95.6639L58.1285 95.6639L58.1284 95.664L58.1282 95.664L58.128 95.6641L58.1278 95.6642L58.1277 95.6642L58.1276 95.6642L58.1275 95.6643C57.6863 95.8294 57.2452 95.9946 56.7736 96.0729L56.706 96.0843C56.3226 96.1494 55.9578 96.2114 55.6816 95.8292C55.6057 95.7242 55.4673 95.6932 55.3289 95.6623C55.1046 95.6121 54.8802 95.5619 54.9216 95.1963C54.4959 94.8994 54.5515 94.4684 54.6053 94.0511L54.6095 94.0188C54.3207 93.9279 54.0385 93.8175 53.7649 93.6884C53.4766 93.5298 53.4178 93.0705 53.5847 92.5906C53.6003 92.5461 53.6284 92.5029 53.6562 92.4603C53.6966 92.3983 53.736 92.3378 53.734 92.2771L53.7333 92.2557C53.7083 91.4839 53.7082 91.4823 54.3473 91.187C54.6605 91.0213 54.9829 90.8734 55.3129 90.7438C55.6979 90.6287 56.0136 90.353 56.1779 89.9884C56.4533 89.4254 57.0025 89.0444 57.6293 88.9817C58.193 88.9196 58.6913 89.2077 59.0669 89.7257L58.7708 89.9262C58.5244 90.0931 58.2586 90.2731 57.9253 90.4992C58.0779 90.5076 58.214 90.5145 58.339 90.5209C58.5921 90.5338 58.7999 90.5444 59.0073 90.5602C59.2544 90.5789 59.2621 90.6011 59.353 90.8621C59.3761 90.9285 59.4046 91.0103 59.4437 91.1114C59.4905 91.2319 59.4962 91.3682 59.5019 91.5046C59.513 91.7696 59.5242 92.0348 59.8365 92.184L59.8191 93.2127C59.8093 93.8463 59.7091 94.4033 58.9858 94.659C58.7889 94.7279 58.6205 94.8758 58.4463 95.0286L58.4462 95.0287L58.4462 95.0287L58.4461 95.0288L58.4461 95.0288C58.3661 95.099 58.2849 95.1702 58.1992 95.2354ZM59.9403 0.419397C59.3479 0.444653 58.8459 0.860504 58.7142 1.43504L59.5001 1.81123C58.9784 1.94258 58.5789 2.14392 58.4808 2.73713C58.6587 2.83456 58.8315 2.94091 58.9986 3.05579C59.0411 3.08769 59.0781 3.13292 59.1148 3.17772C59.2182 3.30397 59.3187 3.42681 59.5321 3.23826L59.4579 3.80311C59.7453 3.95444 60.1292 4.15697 60.4888 4.34684C60.4707 4.4049 60.4527 4.46173 60.4349 4.51768L60.4346 4.51868L60.4344 4.51911L60.4344 4.51928L60.4343 4.51939C60.3774 4.69866 60.3233 4.86893 60.2792 5.04168C60.2705 5.07204 60.3513 5.16025 60.3906 5.15988C60.4757 5.15872 60.614 5.1388 60.634 5.08836C60.6542 5.03785 60.653 4.9748 60.6519 4.91381C60.6505 4.84032 60.6492 4.76981 60.6853 4.72785C60.7257 4.68038 60.8128 4.67231 60.9316 4.66132C60.9935 4.65559 61.0639 4.64907 61.1407 4.63579L60.7799 4.998L61.4277 5.03396L61.4278 5.03397C62.2086 5.07748 62.9498 5.11878 63.6912 5.15334C63.7358 5.15536 63.7805 5.12994 63.8262 5.10398C63.8616 5.08379 63.8977 5.06329 63.9347 5.05508C64.1395 5.00974 64.3366 4.92668 64.5298 4.84524C64.9109 4.68464 65.277 4.53035 65.6576 4.68398C66.1703 4.52806 66.2192 4.16594 66.2652 3.82551C66.2953 3.60221 66.3242 3.38824 66.4819 3.2479C66.4251 3.12355 66.356 3.00292 66.2886 2.88534C66.1437 2.6323 66.0068 2.39338 66.0182 2.1618C66.0306 1.90793 65.9095 1.71573 65.7907 1.52727C65.6697 1.33514 65.551 1.14689 65.5789 0.901127C65.5861 0.83807 65.4068 0.693671 65.3088 0.689832C65.1326 0.682798 64.9768 0.618705 64.8193 0.553867C64.6435 0.481528 64.4654 0.408261 64.2542 0.41227C63.4264 0.42959 62.5985 0.385013 61.7774 0.278917C61.3414 0.221376 60.9211 0.284145 60.5036 0.346477C60.3156 0.374549 60.1282 0.402533 59.9403 0.419397ZM10.9604 68.8611C10.9667 68.7855 10.9759 68.7108 10.9848 68.6374C11.0339 68.2344 11.078 67.8726 10.626 67.6462C11.1792 67.2751 11.5591 67.2486 11.9589 67.6796C12.0605 67.7893 12.1726 67.8864 12.2853 67.9841L12.2855 67.9842C12.4787 68.1516 12.6735 68.3204 12.82 68.5561C12.9374 68.7447 13.1475 68.8719 13.3608 69.0011C13.517 69.0956 13.675 69.1913 13.7998 69.3129C13.957 69.466 14.0675 69.6666 14.178 69.867L14.178 69.8672C14.2273 69.9566 14.2766 70.0459 14.33 70.1311L14.002 70.4287L13.7081 69.9654L13.5908 70.0086L13.6607 70.6903C13.6328 70.7065 13.5935 70.7229 13.5491 70.7413C13.4318 70.7901 13.2793 70.8536 13.2114 70.9672C12.6514 71.9071 11.7713 72.4779 10.8703 73.0179C10.695 73.123 10.4928 73.182 10.2899 73.2414C10.1503 73.2821 10.0104 73.323 9.87851 73.3791L9.75001 73.4339C9.05923 73.7288 8.889 73.8014 8.22608 73.6547C7.71873 73.5424 7.17821 73.4191 6.78247 72.9963C6.63039 72.8117 6.4213 72.6822 6.18768 72.6279C5.65687 72.5777 5.58768 72.2824 5.63883 71.8569C5.65202 71.7353 5.64552 71.6124 5.6196 71.4929C5.45893 70.7364 5.48393 70.6607 6.07925 70.3208C6.81308 69.9016 7.62033 69.6863 8.42613 69.4713L8.42622 69.4713L8.42699 69.4711L8.42775 69.4709L8.42852 69.4707C8.58993 69.4277 8.75127 69.3846 8.91194 69.34C9.38444 69.2084 9.86426 69.1034 10.3379 68.9997C10.547 68.954 10.7549 68.9085 10.9604 68.8611ZM22.2497 57.1374L22.1852 57.2391C22.1569 57.2836 22.1284 57.3281 22.0996 57.3725C22.4233 57.4989 22.6783 57.7314 22.4763 57.9805C22.1866 58.3357 22.4436 58.4096 22.6566 58.4669C22.6981 58.478 22.7418 58.4858 22.7852 58.4935C22.935 58.5203 23.0817 58.5465 23.1238 58.7056C23.1893 58.9536 23.3713 59.0835 23.5509 59.2117L23.551 59.2117C23.6283 59.2669 23.7052 59.3218 23.7721 59.3856C23.9524 59.5574 24.2643 59.7339 24.4797 59.696C24.8449 59.6145 25.1874 59.4538 25.4828 59.2255C25.6606 59.0966 25.809 58.9289 25.9578 58.7607L25.9578 58.7606L25.9579 58.7606L25.9579 58.7606L25.9579 58.7605L25.958 58.7605L25.958 58.7605L25.958 58.7604L25.9581 58.7604L25.9581 58.7604L25.9581 58.7604L25.9582 58.7603L25.9582 58.7603L25.9583 58.7603L25.9583 58.7602C26.0563 58.6495 26.1545 58.5385 26.2613 58.4382C26.3966 58.3111 26.5369 58.1886 26.6772 58.0661L26.6772 58.0661L26.6772 58.066L26.6773 58.066L26.6773 58.066L26.6773 58.0659L26.6774 58.0659L26.6774 58.0659L26.6775 58.0658L26.6775 58.0658L26.6775 58.0658L26.6776 58.0657L26.6776 58.0657L26.6776 58.0657L26.6777 58.0656C27.0762 57.7175 27.475 57.3692 27.7615 56.9146C27.8873 56.715 28.0371 56.5305 28.1869 56.3461C28.4682 55.9997 28.7495 55.6534 28.8709 55.2065C28.9586 54.7604 29.1902 54.3551 29.5308 54.0519C29.922 53.7249 29.8795 53.4559 29.5713 52.9608C29.5342 52.9012 29.4977 52.8279 29.4609 52.7541C29.3744 52.5806 29.2865 52.4042 29.1868 52.3966C28.9281 52.3768 28.9337 52.2259 28.9393 52.0756C28.9445 51.9373 28.9497 51.7994 28.7488 51.7645C27.7671 52.1321 26.9066 52.792 26.0508 53.4483C25.9528 53.5235 25.8549 53.5985 25.7569 53.6731C25.1468 54.1376 24.5808 54.6594 24.0147 55.1812L24.0145 55.1814L24.0143 55.1816L24.014 55.1818L24.0138 55.182L24.0136 55.1822L24.0133 55.1825L24.0131 55.1827L24.0129 55.1829L24.0127 55.1831L24.0124 55.1833L24.0122 55.1835L24.012 55.1837L24.0117 55.1839L24.0115 55.1841C23.7369 55.4373 23.4622 55.6906 23.1824 55.9372C22.7931 56.2805 22.5236 56.7055 22.2497 57.1374ZM27.6866 93.999L27.6867 93.999L27.7183 93.9832C28.4527 93.6116 29.2127 93.2921 29.9926 93.0272C30.1621 92.9707 30.3303 92.9034 30.4995 92.8358C31.1066 92.593 31.7264 92.3452 32.4655 92.5696C32.1948 92.9138 31.8154 93.0485 31.4222 93.1881C31.0642 93.3153 30.6947 93.4465 30.3854 93.7435C30.9376 93.7057 31.426 93.5425 31.9335 93.3729C32.3232 93.2427 32.724 93.1088 33.1737 93.0248L32.7955 93.6288L33.3048 93.7484L33.4273 94.6593C33.3849 94.6825 33.3368 94.7076 33.2849 94.7347C33.1566 94.8017 33.0053 94.8807 32.8616 94.9712C32.081 95.4627 32.078 95.4699 31.6852 96.403L31.6754 96.4262C31.6256 96.5328 31.5643 96.6336 31.4924 96.7269C30.9706 97.4559 30.3913 98.114 29.5334 98.4837C29.1481 98.6577 28.7323 98.7555 28.3092 98.7714C28.2202 98.7789 28.1362 98.8155 28.0703 98.8754C28.0137 98.9336 27.9305 98.9578 27.8512 98.9392C27.7719 98.9206 27.7084 98.8618 27.6839 98.7846C27.563 98.5415 27.3665 98.3684 27.1704 98.1956C27.0119 98.0558 26.8535 97.9163 26.7355 97.7401C26.6215 97.594 26.4495 97.504 26.2638 97.4935C25.9928 97.4384 25.6686 96.8865 25.7394 96.6419C25.7542 96.5914 25.7962 96.5484 25.8383 96.5053C25.9223 96.4193 26.0066 96.3329 25.875 96.1862C25.7624 96.0753 25.6428 95.9717 25.5168 95.8762C26.0179 94.8329 26.8615 94.4113 27.6866 93.999ZM49.3951 65.7909L49.4595 66.3751C49.6609 66.5087 49.8696 66.4693 50.0796 66.4296C50.2695 66.3938 50.4604 66.3578 50.6477 66.4493C50.7506 66.4682 50.8529 66.4141 50.8947 66.3189C50.9365 66.2236 50.9067 66.1122 50.8228 66.0501C50.7968 66.0213 50.831 65.9387 50.8653 65.8561C50.881 65.8181 50.8968 65.7801 50.9066 65.7474C50.9332 65.7568 50.9671 65.7664 51.0011 65.7759C51.0738 65.7963 51.1466 65.8167 51.1463 65.836C51.1387 66.3416 51.5696 66.2149 51.7534 66.1561C51.9075 66.1069 52.0629 66.0602 52.2185 66.0135C52.8536 65.8226 53.492 65.6308 54.0526 65.2675L54.0601 65.2626C54.3512 65.0739 54.7218 64.8336 54.3823 64.3745C54.3656 64.3505 54.386 64.2794 54.4106 64.2458C54.6818 63.8763 54.5464 63.6324 54.1748 63.4519C53.8504 63.2942 54.0103 63.1533 54.1354 63.043L54.1569 63.0239L53.7699 62.4797L52.9433 62.6489C53.0079 62.5501 53.1018 62.4901 53.1938 62.4313C53.3511 62.3308 53.5028 62.2339 53.4924 61.9527L53.3925 61.8875C53.2941 61.8234 53.1842 61.7518 53.0753 61.6788C53.023 61.6435 52.9589 61.61 52.8948 61.5766C52.7528 61.5025 52.6106 61.4283 52.5954 61.3333C52.5324 60.9403 52.3176 61.0192 52.1235 61.0904C52.0983 61.0997 52.0733 61.1088 52.0492 61.1168C51.7708 61.2082 51.4968 61.3128 51.2227 61.4174L51.2225 61.4175C51.0299 61.4911 50.8372 61.5646 50.643 61.6336C50.5229 61.6636 50.4001 61.6815 50.2764 61.6868L50.2351 61.5303C50.8867 61.2776 51.5383 61.0252 52.2702 60.7416C51.6944 60.5716 51.2892 60.7221 50.8491 60.8911C50.154 61.1606 49.4969 61.5181 48.8941 61.9549C48.1288 62.5057 47.4818 63.1811 47.6214 64.2561C47.6256 64.344 47.6214 64.4321 47.6091 64.5192L48.9439 66.0003L49.3951 65.7909ZM70.0219 64.0618L69.6055 64.4323L69.8793 64.4793L70.3367 64.5577C70.3547 64.675 70.3746 64.7934 70.3946 64.9128C70.442 65.1955 70.4904 65.4834 70.5172 65.7734C70.5401 66.0255 70.5252 66.2795 70.4731 66.5272C70.4565 66.6057 70.386 66.6216 70.3061 66.6396C70.196 66.6644 70.0682 66.6933 70.0391 66.8953C70.0125 67.0819 69.7355 67.2187 69.483 67.3433C69.4307 67.3692 69.3794 67.3945 69.3316 67.4196C69.2589 67.4579 69.1616 67.4608 69.0633 67.4638C68.8557 67.4702 68.643 67.4767 68.6437 67.8149L67.7109 67.8153C67.6808 67.8154 67.6507 67.8204 67.6205 67.8232L66.124 69.1552C66.1262 69.3102 66.1161 69.4651 66.0937 69.6185C66.043 69.8517 65.7942 70.0926 65.6551 69.9637C65.4896 69.8104 65.3407 69.874 65.1993 69.9345C65.0766 69.9869 64.9595 70.0369 64.842 69.9409C64.661 69.1949 64.6494 68.9623 64.7873 68.3713L63.7977 68.7613C63.7718 68.7314 63.7345 68.6982 63.6949 68.6631C63.6014 68.5801 63.4957 68.4861 63.5011 68.399C63.5115 68.2328 63.5127 68.0643 63.5139 67.8954C63.5183 67.2705 63.5228 66.642 63.9927 66.1176C64.1345 65.9207 64.2976 65.7399 64.4789 65.5782C64.8556 65.3117 65.2517 65.0719 65.6473 64.8323L65.6474 64.8323L65.6475 64.8322L65.6476 64.8321L65.6478 64.832C65.7149 64.7914 65.7819 64.7508 65.8489 64.7101C65.9806 64.6299 66.1169 64.5576 66.2533 64.4853L66.2534 64.4852L66.2535 64.4851L66.2537 64.4851L66.2538 64.485L66.2539 64.485L66.254 64.4849L66.2541 64.4848L66.2542 64.4848L66.2543 64.4847L66.2544 64.4846L66.2546 64.4846C66.354 64.4318 66.4535 64.3791 66.5511 64.3233C66.6871 64.2458 66.8426 64.2111 66.9981 64.1763C67.2536 64.1192 67.5091 64.0621 67.6777 63.8151C67.9969 63.8804 68.2659 63.7679 68.5409 63.6529L68.541 63.6529C68.6253 63.6177 68.7102 63.5822 68.7973 63.5515C69.027 63.4516 69.288 63.4496 69.5194 63.5461C69.7508 63.6425 69.9324 63.8289 70.0219 64.0618ZM85.7394 36.4343L85.7877 35.5584C85.8823 34.9893 85.8441 34.4062 85.6759 33.854C85.6053 33.6177 85.4728 33.4069 85.3392 33.1944C85.2035 32.9785 85.0667 32.7609 84.9927 32.5131C84.9761 32.4571 84.8416 32.4033 84.7629 32.4046C84.52 32.4066 84.2775 32.4259 84.0374 32.4622C83.5895 32.5335 83.2258 32.7716 82.861 33.0104L82.8609 33.0104L82.8609 33.0104L82.8609 33.0105L82.8609 33.0105L82.8609 33.0105L82.8608 33.0105L82.8608 33.0105L82.8608 33.0105L82.8608 33.0105L82.8608 33.0105C82.7512 33.0823 82.6415 33.1541 82.5294 33.2214C81.5726 33.797 80.8396 34.5077 80.7967 35.7066C80.7991 35.7964 80.7685 35.884 80.7104 35.9528C80.4502 36.1687 80.5525 36.3602 80.6544 36.5509C80.7101 36.6551 80.7657 36.759 80.7618 36.8666C81.1527 37.1437 81.3382 37.5636 81.5191 37.9731C81.5832 38.1183 81.6468 38.2622 81.7187 38.3979C81.9634 38.8596 82.24 39.0024 82.6402 38.9292C82.7198 38.9146 82.8 38.901 82.8805 38.8874C83.5103 38.7806 84.153 38.6716 84.5894 38.1037C84.6481 38.0278 84.7282 37.9676 84.8085 37.9073C84.9768 37.781 85.1458 37.6541 85.1204 37.3803C85.1313 37.2978 85.1844 37.2269 85.2607 37.1928C85.7108 37.147 85.7229 36.8393 85.7352 36.5299C85.7364 36.4979 85.7377 36.466 85.7394 36.4343ZM39.5606 31.4854L39.4418 31.5516L38.8413 31.8862C38.9674 31.9101 39.0617 31.9284 39.1364 31.9428L39.1373 31.943L39.1388 31.9433L39.1389 31.9433C39.2585 31.9664 39.3277 31.9798 39.3974 31.9914L39.3987 31.9917C39.5707 32.0202 39.6637 32.0357 39.7161 32.0902C39.7779 32.1543 39.7834 32.2725 39.7955 32.5299L39.7955 32.5312C39.7962 32.5464 39.7959 32.5636 39.7956 32.5812L39.7956 32.5812L39.7956 32.5813L39.7956 32.5813L39.7956 32.5814C39.7947 32.633 39.7937 32.688 39.818 32.7052C40.1228 32.9021 40.2435 33.2869 40.1052 33.6209C39.9848 34.014 39.7874 34.3795 39.5243 34.6965C38.4626 35.8172 37.0882 36.435 35.6408 36.8939C35.4718 36.9476 35.2766 36.9197 35.0827 36.8919C34.9935 36.8792 34.9046 36.8664 34.8186 36.8617L34.8789 36.5017C34.5353 36.5066 34.2861 36.4157 34.2267 36.0134C34.1822 35.8651 34.0667 35.7482 33.9184 35.7012C33.6745 35.6638 33.6549 35.5038 33.6357 35.3468C33.6226 35.2398 33.6097 35.1342 33.5261 35.0698C33.7336 34.9555 33.707 34.78 33.6803 34.6033C33.657 34.4493 33.6336 34.2944 33.765 34.1784C33.8599 34.0948 33.9482 33.9994 34.0363 33.9043L34.0364 33.9042C34.1997 33.7278 34.3622 33.5523 34.5641 33.4548C35.2429 33.1057 35.9577 32.8306 36.6961 32.6341C37.0262 32.5793 37.3199 32.394 37.5102 32.1204C37.7844 31.6793 38.192 31.3358 38.6746 31.139L38.6912 31.1325C39.0953 30.9739 39.0983 30.9727 39.5606 31.4854ZM50.0296 49.9076C49.9164 49.8837 49.8005 49.8747 49.685 49.8807C49.4214 50.0456 49.1875 50.231 48.9583 50.4128L48.9582 50.4129L48.958 50.413L48.958 50.413L48.9579 50.413L48.9579 50.4131L48.9579 50.4131C48.8488 50.4995 48.7409 50.5851 48.6313 50.6673C47.9501 51.1743 47.2514 51.6965 46.8589 52.5277C46.5971 53.0828 46.6366 53.6127 47.0186 53.9319C47.1281 54.0234 47.2042 54.1502 47.2799 54.2764C47.4155 54.5022 47.5499 54.7262 47.872 54.7425C47.9174 55.2655 48.3541 55.201 48.6318 55.1358C49.4084 54.9539 50.1948 54.7495 50.8365 54.2382C50.9547 54.144 51.0536 54.0265 51.1525 53.9089C51.2441 53.8001 51.3357 53.6913 51.4428 53.6007C51.6196 53.4509 51.8142 53.3219 52.0242 53.1826L52.0244 53.1825C52.1197 53.1193 52.2182 53.054 52.3197 52.9836L52.1257 51.5742L51.8924 51.5229L51.8894 51.5222C51.7717 51.4962 51.6522 51.4698 51.5075 51.4383L52.4311 50.4315C52.3657 50.3548 52.2895 50.2811 52.2176 50.2117C52.0713 50.0704 51.9431 49.9465 51.9616 49.8504C51.9913 49.6944 51.9542 49.5615 51.9171 49.4287C51.8807 49.2984 51.8443 49.168 51.871 49.0156C51.7558 49.0925 51.7288 49.2264 51.7028 49.3554C51.6626 49.5553 51.6246 49.7437 51.2641 49.6907L51.4801 49.2582C51.0372 49.0842 50.8448 49.3697 50.6449 49.6664C50.6252 49.6956 50.6055 49.7249 50.5854 49.7539C50.7548 49.7144 50.9243 49.6759 51.1344 49.6279C51.117 49.7277 51.0828 49.8239 51.0331 49.9123C50.9533 50.0052 50.8509 50.0763 50.7356 50.1187C50.7041 50.1283 50.6639 50.1012 50.6212 50.0724C50.5822 50.046 50.5411 50.0183 50.5028 50.0162C50.4597 50.0143 50.4144 50.0339 50.3699 50.0532C50.3208 50.0745 50.2727 50.0953 50.2298 50.0863C50.1912 50.0783 50.16 50.0382 50.1285 49.9976C50.0982 49.9586 50.0675 49.9192 50.0296 49.9076ZM36.4421 64.8353L36.255 65.2965C36.6881 65.3393 36.9661 65.1214 37.248 64.9006C37.4876 64.7128 37.73 64.523 38.0727 64.489C38.0187 64.6267 37.9493 64.7579 37.8659 64.8802C37.7042 65.0426 37.5343 65.1966 37.3566 65.3416C37.647 65.3387 37.9268 65.2332 38.146 65.044C38.4711 65.3425 38.6139 65.4736 38.6712 65.6351C38.7161 65.7616 38.7085 65.9067 38.695 66.1655C38.5782 66.2576 38.4509 66.3447 38.3226 66.4326C38.0277 66.6346 37.7268 66.8406 37.5332 67.12C37.3465 67.3894 37.0924 67.5351 36.8402 67.6798C36.678 67.7728 36.5165 67.8654 36.3742 67.9902C35.9967 68.2789 35.5779 68.5098 35.1316 68.6752C34.8911 68.7958 34.6201 68.8434 34.3525 68.8119C34.0483 68.7463 33.6042 68.5914 33.5288 68.3709C33.4422 68.1177 33.2911 68.073 33.136 68.0271C33.0687 68.0072 33.0007 67.9871 32.9369 67.9496C32.6488 67.7802 32.3718 67.5549 32.3293 67.1671C32.3203 67.085 32.2938 66.9962 32.2677 66.9088C32.2218 66.7554 32.1772 66.6061 32.2305 66.5039C32.4229 66.1003 32.6918 65.7372 33.0224 65.4347C33.6611 64.9155 34.3328 64.4378 35.0333 64.0045C35.1487 63.9311 35.3156 63.9377 35.512 63.9455C35.6118 63.9494 35.7192 63.9537 35.8313 63.9479L35.5222 64.2889C35.8484 64.2599 36.0212 64.4413 36.1844 64.6125L36.1845 64.6125C36.2667 64.6988 36.3464 64.7824 36.4421 64.8353ZM2.00845 57.4265L1.70127 57.9172C2.02528 57.8824 2.34653 57.8258 2.66281 57.7478C2.79188 57.7049 2.97927 57.538 2.9719 57.4399C2.95571 57.2248 3.08195 57.1021 3.19958 56.9878C3.2756 56.9139 3.34802 56.8434 3.37609 56.7539C3.44607 56.527 3.59537 56.4047 3.74373 56.2831C3.80175 56.2356 3.85962 56.1881 3.91255 56.1346C4.01986 56.0263 4.14437 55.9293 4.2682 55.8329C4.47804 55.6696 4.6859 55.5077 4.80477 55.2945C4.92317 55.082 5.08763 54.9331 5.25005 54.7861C5.35503 54.6912 5.45915 54.5969 5.54943 54.4868C5.70888 54.2923 5.86471 54.0948 6.02014 53.8979C6.0889 53.8108 6.15759 53.7238 6.22648 53.6371L6.2831 52.6096C5.93126 52.6923 5.94087 52.5121 5.95057 52.3305C5.95815 52.1884 5.96579 52.0454 5.80072 52.0263C5.67058 52.0082 5.57927 52.1001 5.48706 52.193C5.35868 52.3224 5.22856 52.4534 4.9895 52.2913C5.03591 52.2431 5.08763 52.1974 5.13895 52.1521C5.34227 51.9727 5.53925 51.7988 5.37407 51.4944C4.82108 51.4902 4.46409 51.825 4.10683 52.16L4.05542 52.2082C3.98988 52.2771 3.9183 52.3401 3.84153 52.3963C2.95811 52.9569 2.11794 53.5821 1.32798 54.2667C1.2362 54.3471 1.12523 54.4055 1.01411 54.4639C0.911055 54.5181 0.807877 54.5724 0.719775 54.6443L0.683267 54.6741C0.358683 54.9388 0.0229124 55.2126 0.064558 55.7041C0.266696 55.7407 0.427746 55.6471 0.585701 55.5552C0.77628 55.4445 0.962345 55.3363 1.21062 55.4625L0.190927 56.3698L0.45699 56.8892L1.52153 56.5015C1.20755 57.1155 1.24504 57.1696 2.00845 57.4265ZM65.9151 54.9162C65.9014 55.0276 65.911 55.1283 65.92 55.2242C65.9374 55.4083 65.953 55.5743 65.7995 55.7627L65.6883 55.3737C65.5831 55.3983 65.4779 55.4239 65.3726 55.4495L65.3719 55.4496C65.0886 55.5185 64.8051 55.5875 64.5194 55.6384C64.4186 55.6565 64.2252 55.5939 64.1998 55.5232C64.1174 55.2949 63.9441 55.1531 63.7726 55.0128C63.6513 54.9135 63.5308 54.8149 63.444 54.6869C63.3598 54.5309 63.3169 54.3562 63.3193 54.1793C63.3169 54.136 63.35 54.0907 63.383 54.0455C63.4158 54.0005 63.4486 53.9557 63.4464 53.9129C63.4167 53.7979 63.3661 53.6892 63.297 53.5923L63.3394 53.5829C63.8862 53.4618 63.9145 53.4555 64.1635 52.8421C64.2582 52.6083 64.4423 52.4971 64.629 52.3843C64.7429 52.3155 64.8577 52.2462 64.9538 52.148L64.6864 52.0048L64.5658 51.9402C64.6002 51.9111 64.6341 51.8751 64.6671 51.8398L64.6672 51.8398L64.6672 51.8398C64.7363 51.7662 64.8021 51.696 64.8635 51.6997C66.0006 51.7674 66.0265 51.7678 66.7364 51.2892C66.4368 51.0965 66.1987 51.2158 65.9466 51.342C65.7796 51.4256 65.6064 51.5123 65.4052 51.5134C65.4147 51.4687 65.4206 51.4167 65.4264 51.366C65.4382 51.2612 65.4494 51.1625 65.4903 51.1485C65.5801 51.1174 65.6692 51.0836 65.7582 51.0497C66.2709 50.855 66.7791 50.662 67.3676 51.0176C67.3947 51.034 67.4201 51.0488 67.444 51.0626C67.6091 51.1582 67.6955 51.2083 67.6866 51.4392C67.6976 51.6151 67.7544 51.7852 67.8513 51.9328C68.0058 52.208 68.1714 52.477 68.3447 52.7585C68.4163 52.8749 68.4893 52.9934 68.5633 53.1154L68.3197 53.2582C68.2185 53.387 68.2636 53.5262 68.3021 53.6455C68.3549 53.8087 68.3955 53.9345 68.0333 53.9453C67.9647 53.9473 67.9821 54.0105 68.0028 54.086C68.0358 54.2063 68.0774 54.3577 67.7924 54.342C67.6681 54.3351 67.535 54.4856 67.407 54.6303L67.407 54.6303L67.407 54.6304L67.4068 54.6306C67.3501 54.6946 67.2945 54.7575 67.241 54.8052C67.0907 54.7383 66.9475 54.674 66.8044 54.6103C66.7691 54.6551 66.7339 54.6999 66.6988 54.7448C66.8521 54.8361 67.0054 54.9275 67.1983 55.0422L66.6831 55.3069L66.4983 55.4019C66.3184 55.2524 66.1166 55.0843 65.9151 54.9162ZM39.9279 20.9082L39.1548 21.4513C39.2239 21.5668 39.3059 21.6742 39.3993 21.7713C39.5019 21.8276 39.6078 21.878 39.7163 21.9221L39.7326 21.9308C39.8283 21.9822 39.9806 22.0638 39.9724 22.091C39.9072 22.3063 40.0312 22.4632 40.1548 22.6197C40.2873 22.7874 40.4195 22.9547 40.3179 23.1929C40.3893 23.2303 40.4626 23.2638 40.5375 23.2934C40.637 23.1099 40.7721 23.1529 40.9056 23.1954C40.9758 23.2177 41.0456 23.24 41.1096 23.2291C41.3853 23.1824 41.6106 23.0497 41.8334 22.9185C41.9909 22.8258 42.1471 22.7338 42.319 22.6735C43.0639 22.4172 43.7393 21.9938 44.2927 21.4361L44.1254 19.4813L43.1959 19.43C43.2571 19.2848 43.3803 19.1882 43.4997 19.0945C43.6711 18.9601 43.8349 18.8317 43.7968 18.574C43.2782 18.4312 42.7702 18.4204 42.3505 18.6863C42.0031 18.9062 41.64 19.0964 41.2774 19.2864L41.2773 19.2864C40.9275 19.4696 40.5782 19.6526 40.2437 19.8619C39.9131 20.0464 39.6377 20.3149 39.4457 20.6399L39.9279 20.9082ZM26.4499 41.8308L25.5555 42.1583L26.0106 42.3591C26.0069 42.3645 26.0032 42.3704 25.9997 42.3765C25.9946 42.3853 25.9896 42.3946 25.9846 42.404L25.9846 42.404L25.9845 42.4041C25.9666 42.4377 25.949 42.471 25.9256 42.4759C25.5994 42.5403 25.2956 42.6877 25.0439 42.9037C24.8779 43.031 24.695 43.1349 24.5004 43.2125C24.1654 43.3407 23.9168 43.6265 23.8376 43.9745L24.141 44.1441L23.7206 44.643C23.6737 44.6404 23.6372 44.6404 23.6097 44.6403C23.5675 44.6402 23.5464 44.6402 23.5411 44.6312C23.4599 44.4908 23.3828 44.3481 23.3096 44.2126L23.3095 44.2125L23.3095 44.2124L23.3094 44.2123L23.2518 44.1059C22.9888 44.1378 22.7499 44.1668 22.3927 44.21L22.7544 43.5642C22.5098 43.4261 22.2642 43.2876 21.9999 43.1388L21.9725 42.6767L21.5483 42.6533C21.2151 42.157 21.285 41.7694 21.687 41.377C21.8531 41.2149 22.0105 41.044 22.17 40.8707C22.4311 40.5872 22.698 40.2974 23.0185 40.029L23.3748 40.6344C23.7717 40.5454 24.1452 40.3737 24.4704 40.1307C24.7154 39.955 25.0056 39.8417 25.2909 39.7302L25.291 39.7302L25.2911 39.7302L25.2912 39.7301C25.415 39.6818 25.5378 39.6338 25.6557 39.5812C25.9163 39.816 25.8036 39.9937 25.6848 40.1809C25.6533 40.2304 25.6215 40.2806 25.596 40.3327C25.6267 40.3379 25.6579 40.3466 25.6885 40.3551L25.6886 40.3551L25.6887 40.3551L25.6887 40.3552C25.7532 40.3731 25.8147 40.3902 25.8628 40.3722C26.3041 40.2058 26.5121 40.2996 26.5087 40.704C26.5062 40.9671 26.4886 41.2302 26.4714 41.4895C26.4637 41.6041 26.4561 41.718 26.4499 41.8308ZM23.4665 15.0319L24.1628 14.6179C24.1501 14.5967 24.1378 14.5756 24.1258 14.5548L24.1255 14.5543C24.0212 14.3743 23.9295 14.2159 23.6517 14.1737C23.0196 14.0772 22.4696 14.2979 21.9215 14.5177L21.9214 14.5178C21.7803 14.5743 21.6395 14.6309 21.4973 14.6819C21.2121 14.7843 21.0948 15.2545 21.1571 15.6359C21.1783 15.7888 21.1798 15.9438 21.1616 16.0971C21.1012 16.4799 21.3554 16.842 21.7377 16.918C22.0057 16.9921 22.1837 17.0679 22.2486 17.3544C22.2881 17.6106 22.5254 17.7892 22.7841 17.7576C22.8046 17.7573 22.8252 17.7568 22.8458 17.7562L22.8635 17.7556C23.0802 17.749 23.3032 17.7423 23.4668 17.9709C23.5763 18.0368 23.7119 18.0432 23.827 17.9878C23.8795 17.9552 23.9144 17.881 23.947 17.8116C23.9815 17.7383 24.0135 17.6703 24.0611 17.6618C24.1205 17.6512 24.1867 17.6963 24.2554 17.7432C24.3185 17.7861 24.3836 17.8305 24.4476 17.8346C24.8949 17.8636 25.1478 17.5456 25.3015 17.2046C25.3429 17.1133 25.3511 17.01 25.3595 16.9042C25.3721 16.7446 25.3852 16.5793 25.5133 16.4407C25.5251 16.428 25.4567 16.3458 25.376 16.249C25.3118 16.172 25.2399 16.0856 25.1946 16.0177C25.1551 15.932 25.1271 15.8415 25.1112 15.7485L24.3311 15.7055C24.5796 15.6031 24.7046 15.5516 24.8073 15.5094L24.8377 14.9576C24.7311 14.9754 24.628 14.9933 24.5275 15.0106L24.5274 15.0107C24.2564 15.0575 24.0039 15.1012 23.7499 15.1344C23.7032 15.1406 23.6524 15.1163 23.587 15.085C23.5516 15.0682 23.512 15.0492 23.4665 15.0319ZM39.6626 45.9928L39.388 46.7651C39.6884 46.9103 39.9817 46.9646 40.2716 46.7089C40.441 46.9159 40.3446 47.0691 40.2446 47.228C40.1759 47.3372 40.1055 47.4491 40.1185 47.583L40.6241 47.7054C40.755 47.8414 40.6886 47.9605 40.6186 48.086C40.5495 48.2101 40.4768 48.3405 40.5874 48.4999C40.7245 48.6984 40.5853 48.7955 40.4366 48.8994C40.3385 48.9678 40.2364 49.0392 40.2064 49.1443C40.1321 49.3034 40.0111 49.4363 39.8592 49.5256C39.667 49.6646 39.4457 49.7491 39.2232 49.8341C38.9143 49.9521 38.6031 50.071 38.3647 50.3377C38.2991 50.411 38.1385 50.4004 37.9553 50.3882C37.8638 50.3822 37.7665 50.3757 37.6726 50.3792C37.8225 50.1137 37.6725 49.9635 37.5219 49.8126C37.3788 49.6693 37.235 49.5253 37.3467 49.2812C37.272 49.2295 37.1769 49.2045 37.0797 49.179C36.8543 49.1198 36.6181 49.0579 36.6014 48.653L37.1187 48.3886L36.6497 48.1334C36.5933 47.8207 36.8536 47.686 37.0375 47.5908L37.0628 47.5777C37.6611 47.2692 38.1703 46.8142 38.5423 46.2556C38.7807 45.904 39.1475 45.7245 39.6626 45.9928ZM64.3993 41.5174L65.2827 42.774C65.3795 42.7573 65.4867 42.7483 65.5979 42.7389C65.8575 42.7171 66.1387 42.6934 66.3593 42.5662C66.929 42.2526 67.4461 41.853 67.8923 41.3816C68.3918 40.8267 68.815 40.1622 68.1697 39.3961C68.1283 39.3469 68.1189 39.2712 68.1083 39.1858C68.1028 39.1413 68.097 39.0942 68.0862 39.0469C67.9998 39.0589 67.9133 39.0625 67.8309 39.066C67.6627 39.0732 67.5115 39.0796 67.4135 39.1547C67.3475 39.2052 67.2824 39.2569 67.2175 39.3085C66.831 39.6157 66.4501 39.9186 65.9095 39.9299C65.6608 40.203 65.3332 40.332 65.0081 40.4601C64.813 40.537 64.6189 40.6135 64.4432 40.7205L64.3993 41.5174Z" fill="#171B1B"/>
</svg>
