<svg width="188" height="214" viewBox="0 0 188 214" fill="none" xmlns="http://www.w3.org/2000/svg">
<path fill-rule="evenodd" clip-rule="evenodd" d="M182.565 213.16C184.014 212.917 185.464 212.674 186.957 212.791C184.982 213.214 182.967 213.422 180.947 213.412C181.488 213.34 182.026 213.25 182.565 213.16ZM186.997 212.79L187.761 212.885C183.145 213.79 178.439 214.143 173.74 213.936C167.083 213.584 160.514 212.254 154.243 209.987C148.107 207.756 142.136 205.095 136.373 202.025C127.927 197.608 119.43 193.302 110.545 189.805C103.247 186.878 95.4444 185.421 87.5844 185.519C84.4618 185.566 81.3436 185.665 78.1541 185.954C78.3216 185.603 78.5714 185.584 78.8532 185.562C79.0679 185.546 79.3012 185.528 79.531 185.36C79.2278 185.392 78.9229 185.395 78.6345 185.397C78.036 185.402 77.5085 185.407 77.2149 185.671C76.7559 186.161 76.067 186.361 75.4171 186.195C74.0013 185.622 72.6514 185.909 71.3074 186.194C70.6956 186.325 70.0849 186.454 69.4698 186.503C68.7171 186.562 67.9955 186.801 67.2684 187.043C66.4895 187.302 65.7045 187.563 64.8683 187.606C64.2022 187.64 63.542 187.724 62.8815 187.808C61.5051 187.983 60.127 188.159 58.6898 187.881C57.7396 187.698 56.5976 188.115 55.5548 188.518C54.5902 188.889 53.3134 189.113 52.3973 188.782C51.4459 188.438 50.534 188.543 49.6246 188.648L49.6244 188.648C49.0602 188.714 48.497 188.779 47.926 188.736C44.2751 188.504 40.6413 188.052 37.0442 187.385C31.9407 186.335 26.9613 184.752 22.1879 182.66C14.2224 179.265 8.68632 173.324 4.61284 165.881C0.533422 158.425 -0.420582 150.637 2.36337 142.488L2.41839 142.327C3.86551 138.089 5.31233 133.852 7.12989 129.757C8.28658 127.093 9.78618 124.593 11.5905 122.319C13.0966 120.45 13.954 118.269 14.8106 116.091L14.8115 116.088C14.8793 115.916 14.9471 115.744 15.0151 115.571C17.4658 109.374 20.5101 103.521 24.8087 98.3895C29.1498 93.2091 34.4719 89.2352 40.3816 86.0445C48.2399 81.8011 56.7372 79.4837 65.4366 77.7049L65.9498 77.6L65.9499 77.6C78.2952 75.077 90.6529 72.5515 102.396 67.7779C110.787 64.3671 118.811 60.2917 125.884 54.5272C129.013 51.9764 131.446 48.839 133.745 45.5507C135.201 43.4693 136.612 41.3561 138.022 39.2429C140.539 35.4717 143.056 31.7006 145.83 28.1105C148.94 24.0867 152.171 20.1568 156.082 16.8695C162.936 11.1083 170.392 6.29911 178.93 3.47187C188.08 0.442134 197.427 -0.910218 207.002 1.38928C216.115 3.57805 223.799 7.94545 228.796 16.176C231.527 20.6778 232.774 25.7157 233.346 30.9009C233.863 35.5817 234.147 40.2809 234.431 44.9806L234.431 44.9809L234.431 44.9811L234.431 44.9813L234.431 44.9816L234.431 44.9818L234.431 44.9821L234.431 44.9823L234.431 44.9825L234.431 44.9828C234.725 49.8421 235.019 54.7019 235.57 59.5422C235.697 60.6549 235.816 61.7686 235.935 62.8823C236.507 68.2261 237.078 73.5686 238.478 78.7866C240.542 86.4901 244.74 92.9039 250.335 98.4909C252.699 100.855 255.131 103.148 257.564 105.441L257.567 105.443C258.998 106.793 260.43 108.143 261.849 109.508C266.439 113.925 270.741 118.59 274.062 124.081C279.897 133.73 280.133 143.733 275.947 154C273.471 159.957 270.109 165.505 265.976 170.456C264.492 172.266 262.896 173.969 261.305 175.667C261.028 175.964 260.751 176.26 260.474 176.556C258.769 178.385 256.887 180.039 254.855 181.493C254.011 182.097 253.236 182.792 252.458 183.489L252.458 183.49L252.457 183.49C251.738 184.135 251.017 184.782 250.236 185.361C244.361 189.751 238.2 193.743 231.795 197.311C227.946 199.438 223.962 201.277 219.969 203.084C216.776 204.529 213.494 205.787 210.15 206.917C209.334 207.192 208.519 207.475 207.702 207.758C205.759 208.431 203.811 209.106 201.843 209.691C201.064 209.922 200.248 210.005 199.426 210.088C198.666 210.165 197.9 210.242 197.154 210.438C194.074 211.3 190.935 211.934 187.762 212.334C187.444 212.367 187.128 212.429 186.997 212.79ZM198.793 6.07663L198.724 5.89246C198.314 5.91534 197.904 5.92995 197.494 5.94457C196.593 5.97664 195.693 6.00871 194.804 6.128C194.48 6.1717 194.155 6.21453 193.83 6.25735C189.94 6.77022 186.063 7.28139 182.501 9.26254C182.046 9.51612 181.516 9.66221 180.975 9.81171C180.313 9.99424 179.634 10.1819 179.047 10.5765C178.322 11.0643 177.522 11.3774 176.714 11.6934C175.894 12.0142 175.066 12.3382 174.302 12.8513C171.961 14.4211 169.551 15.9353 167.084 17.3163C165.988 17.9299 165.037 18.7144 164.087 19.4974L164.087 19.4975L164.087 19.4977C163.62 19.8832 163.153 20.2683 162.669 20.6324C161.558 21.5655 160.499 22.5593 159.498 23.6093C157.529 25.4449 155.719 27.4436 154.086 29.5841C152.453 31.7575 150.902 34.0092 149.385 36.2764C148.794 37.1598 148.217 38.0538 147.641 38.9479C146.757 40.3179 145.873 41.6881 144.937 43.0205C143.103 45.5919 141.438 48.2795 139.951 51.0665C139.569 51.7965 139.06 52.4094 138.551 53.0227L138.55 53.0229C138.088 53.5798 137.625 54.1373 137.256 54.7833C136.639 55.9936 135.881 57.126 134.997 58.1568C133.327 59.9479 131.526 61.6115 129.609 63.1336C123.16 68.1767 115.984 71.9418 108.443 75.0297C108.085 75.1764 107.727 75.3274 107.37 75.4784L107.37 75.4784L107.369 75.4785L107.369 75.4785L107.369 75.4786L107.369 75.4786L107.369 75.4786L107.369 75.4787L107.369 75.4787C105.407 76.3068 103.436 77.1389 101.255 77.3094C100.447 77.3287 99.65 77.5111 98.9133 77.8456C97.5624 78.558 96.1086 79.0549 94.6045 79.3182C92.8652 79.643 91.1592 80.0931 89.452 80.5435L89.4519 80.5435C88.0595 80.9109 86.6663 81.2785 85.2536 81.5785C80.1626 82.6604 75.0652 83.6962 69.9236 84.4743C68.4903 84.6913 67.0775 84.9995 65.664 85.3078L65.664 85.3078L65.6639 85.3078L65.6638 85.3078L65.6638 85.3078L65.6637 85.3078L65.6636 85.3078L65.6636 85.3079L65.6635 85.3079L65.6634 85.3079C63.9918 85.6725 62.3194 86.0373 60.6112 86.2517C59.1703 86.4329 57.7717 86.9685 56.3755 87.5032C55.818 87.7167 55.2609 87.9301 54.7016 88.1207C45.4349 91.2778 37.1947 96.0418 30.9461 103.753C30.5817 104.203 30.1176 104.461 29.6604 104.716C29.1238 105.015 28.5965 105.308 28.2504 105.9C25.3669 110.834 22.4163 115.727 19.26 120.495C17.0891 123.775 15.7158 127.419 14.3423 131.062C13.6175 132.986 12.8926 134.909 12.0504 136.779L12.0085 136.872L11.9709 136.956L11.9704 136.957C11.5561 137.883 11.5339 137.933 10.4183 138.573C10.3311 138.623 10.2946 138.768 10.2595 138.908C10.2463 138.96 10.2334 139.011 10.2181 139.056C9.84595 140.157 9.44269 141.247 9.03947 142.338C8.2149 144.567 7.39046 146.796 6.83206 149.112C6.74704 149.465 6.65721 149.818 6.56732 150.171C6.10795 151.975 5.64683 153.786 5.81568 155.676C6.52288 163.546 10.4304 169.5 16.898 173.828C20.5445 176.268 24.618 177.834 28.7599 179.21C37.2527 182.059 46.2513 183.074 55.1631 182.188C58.759 181.837 62.3428 181.384 65.9269 180.932C71.2827 180.255 76.6394 179.578 82.0389 179.24C90.83 178.623 99.656 179.775 107.997 182.627C118.104 186.115 127.639 190.871 137.139 195.712C143.653 199.03 150.273 202.11 157.295 204.213C167.171 207.17 177.166 207.455 187.28 205.58C193.388 204.459 199.412 202.919 205.309 200.971C221.462 195.604 236.523 188.068 250.247 177.92C256.505 173.292 262.192 168.103 266.609 161.626C269.586 157.258 272.234 152.727 273.733 147.607C274.612 144.603 275.055 141.567 274.265 138.471C273.303 134.676 271.665 131.086 269.43 127.873C265.377 122.036 260.232 117.229 255.085 112.42C254.459 111.835 253.833 111.25 253.209 110.663C247.565 105.355 242.03 99.9869 238.409 92.926C236.308 88.9117 234.793 84.6166 233.91 80.1718C231.801 69.1955 231.309 58.0611 230.817 46.9315L230.817 46.9307L230.759 45.6162C230.692 44.111 230.662 42.6036 230.632 41.0963L230.632 41.0959C230.555 37.2514 230.479 33.4072 229.79 29.5991C229.146 26.0448 228.146 22.6209 226.174 19.5479C222.619 14.171 217.298 10.2076 211.134 8.3438C210.956 8.30991 210.786 8.24249 210.633 8.14513C209.171 6.96945 207.444 6.90437 205.714 6.83916L205.713 6.83912C205.542 6.83266 205.37 6.82619 205.199 6.81863C205.079 6.81328 204.951 6.81471 204.821 6.81617C204.415 6.82072 203.99 6.82547 203.749 6.62472C203.118 6.09986 202.429 6.17588 201.726 6.25332C201.156 6.31612 200.578 6.37985 200.016 6.12503C199.71 5.98667 199.215 6.08122 198.678 6.18391C198.244 6.26679 197.782 6.35497 197.37 6.3303L198.793 6.07663ZM80.9466 180.633C85.9436 180.228 90.9712 180.425 95.9216 181.22C90.2892 180.742 84.6256 180.768 78.9982 181.299C74.2122 181.699 69.4517 182.316 64.6911 182.932C62.3724 183.232 60.0538 183.533 57.7322 183.808C55.4678 184.117 53.1806 184.228 50.8969 184.138C51.4271 183.632 51.9998 183.701 52.5563 183.767C52.8279 183.8 53.0957 183.832 53.3528 183.797C55.0077 183.569 56.6682 183.378 58.3285 183.188C59.8953 183.008 61.462 182.828 63.0236 182.617C68.9829 181.812 74.9488 181.075 80.9466 180.633ZM194.784 1.81104C200.374 1.78265 205.94 2.53964 211.32 4.05989C206.085 1.92921 200.397 1.15572 194.784 1.81104ZM104.576 69.343C110.666 67.2354 116.408 64.2294 121.611 60.4241C116.097 63.7124 110.38 66.6087 104.576 69.343ZM35.8401 91.1082C31.083 94.3457 26.6933 97.9657 23.7447 103.039C27.3074 98.6121 31.3657 94.6089 35.8401 91.1082ZM165.688 207.722L165.689 207.722C171.06 208.235 176.431 208.748 181.835 208.028C175.895 209.153 169.783 208.991 163.91 207.554C164.498 207.608 165.085 207.664 165.673 207.721L165.688 207.722ZM186.838 2.59343C186.97 2.72452 187.061 2.82317 187.126 2.89312C187.217 2.9929 187.256 3.03428 187.283 3.02815C189.305 2.52563 191.374 2.23941 193.456 2.1743C193.547 2.18674 193.639 2.16109 193.711 2.10336C193.782 2.04564 193.827 1.96094 193.834 1.86917C193.848 1.55509 193.597 1.49759 193.376 1.53234C191.732 1.7919 190.089 2.06113 188.339 2.3477L188.337 2.34808L188.334 2.34858C187.845 2.42878 187.347 2.51034 186.838 2.59343ZM122.973 66.7752C125.2 65.7097 127.249 64.3062 129.047 62.6142L122.973 66.7752ZM70.4675 185.518C72.903 185.695 74.0191 185.356 74.3091 184.19C73.7854 185.275 73.0143 185.232 72.2067 185.186C71.6192 185.154 71.0123 185.12 70.4675 185.518ZM66.086 187.054L66.073 187.226L60.7658 187.784L60.748 187.615L66.086 187.054Z" fill="#9EAD8D"/>
</svg>
