<svg width="87" height="124" viewBox="0 0 87 124" fill="none" xmlns="http://www.w3.org/2000/svg">
<path fill-rule="evenodd" clip-rule="evenodd" d="M1.61091 53.0605L1.61091 53.0605L1.61091 53.0605L1.61091 53.0607C1.6117 53.1827 1.61252 53.31 1.61229 53.4446C0.562677 53.6489 0.365956 53.8182 0.416663 54.6975L0.419858 54.754C0.443578 55.1776 0.468778 55.6277 0.822924 55.9939C0.994834 56.1713 1.13406 56.38 1.27347 56.5889C1.40638 56.7881 1.53945 56.9875 1.70119 57.1604C2.3687 57.8731 3.11147 58.4854 4.13812 58.6102C4.46795 58.6501 4.79585 58.7064 5.1355 58.7647L5.13551 58.7647C5.2925 58.7917 5.452 58.8191 5.61537 58.8455L5.9386 58.6106C5.97759 58.5823 6.01633 58.5536 6.05509 58.5248L6.05511 58.5248L6.05514 58.5248L6.05517 58.5248L6.05519 58.5247L6.05522 58.5247L6.05525 58.5247L6.05527 58.5247L6.0553 58.5247L6.05533 58.5246L6.05535 58.5246L6.05538 58.5246L6.05541 58.5246L6.05543 58.5246L6.05546 58.5246L6.05548 58.5245L6.05551 58.5245L6.05554 58.5245L6.05556 58.5245L6.05559 58.5245L6.05562 58.5244L6.05564 58.5244L6.05567 58.5244L6.0557 58.5244L6.05574 58.5243L6.05577 58.5243L6.0558 58.5243L6.05584 58.5243L6.05587 58.5243L6.0559 58.5242L6.05594 58.5242L6.05597 58.5242L6.056 58.5242L6.05603 58.5241L6.05607 58.5241L6.0561 58.5241L6.05613 58.5241L6.05617 58.524L6.0562 58.524L6.05623 58.524L6.05626 58.524L6.0563 58.5239L6.05633 58.5239L6.05636 58.5239L6.0564 58.5239C6.13407 58.4663 6.21179 58.4087 6.29159 58.3541C6.91521 57.928 6.91713 57.9294 7.69007 58.4816L7.70802 58.4945C7.78036 58.5462 7.87143 58.5835 7.96079 58.6201C8.09601 58.6755 8.22733 58.7293 8.28393 58.8292C8.61905 59.4223 9.13588 59.4697 9.71206 59.4486L9.44093 58.6628L9.13939 57.7889L9.33773 57.6976L10.2928 59.0122C11.2421 58.6072 10.9313 58.0112 10.6413 57.4552C10.6233 57.4206 10.6054 57.3863 10.5879 57.3521C11.2383 57.2176 11.6435 56.979 11.529 56.3243C11.4369 55.7977 11.7203 55.8469 12.0093 55.8971L12.0093 55.8971L12.0094 55.8971C12.0491 55.904 12.0889 55.9109 12.1278 55.9163C12.0772 54.8424 11.6601 53.8164 10.9463 53.0099C10.4173 52.3625 9.93289 51.679 9.44837 50.9954L9.44832 50.9953L9.44828 50.9953L9.44823 50.9952L9.44819 50.9951L9.44814 50.9951L9.4481 50.995L9.44805 50.995L9.44801 50.9949L9.44796 50.9948L9.44792 50.9948L9.44788 50.9947L9.44783 50.9947L9.44779 50.9946L9.44774 50.9945L9.4477 50.9945L9.44765 50.9944L9.44761 50.9944L9.44756 50.9943L9.44752 50.9942L9.44747 50.9942L9.44743 50.9941L9.44739 50.994C9.19825 50.6425 8.94909 50.291 8.69381 49.9443C8.53567 49.7489 8.36778 49.5617 8.19081 49.3832L8.07373 49.4765L8.78859 50.7C8.44508 50.5049 8.15361 50.2293 7.93934 49.897C7.71111 49.5962 7.46019 49.3135 7.18881 49.0512C6.91429 48.8346 6.62525 48.6372 6.32378 48.4604L6.53296 49.1457C5.59819 48.7045 5.59733 48.7055 4.98481 49.4273L4.97997 49.433C4.89597 49.5316 4.75919 49.6868 4.67979 49.6701C4.24346 49.5742 4.12304 49.754 3.99251 50.1538C3.96192 50.2472 3.79991 50.2836 3.62144 50.3237C3.45689 50.3606 3.27835 50.4007 3.1759 50.4916C2.91965 50.7442 2.7225 51.0506 2.59849 51.389C2.50982 51.6063 2.32684 51.63 2.14861 51.6531C1.98423 51.6744 1.82389 51.6952 1.74534 51.8668C1.67972 51.989 1.63719 52.1224 1.61986 52.2604C1.6074 52.5171 1.60906 52.7744 1.61091 53.0605ZM31.7697 47.741C31.6646 47.8834 31.4204 47.9232 30.941 48.0014C30.9456 48.151 30.9138 48.2977 30.8817 48.4458C30.8132 48.7613 30.7434 49.0832 31.022 49.4534C31.3803 49.9457 31.9095 50.286 32.5045 50.4067C32.5721 50.422 32.6418 50.4413 32.7122 50.4607C32.9377 50.5228 33.1703 50.587 33.3624 50.5307C33.9256 50.3661 34.4569 50.4823 34.9869 50.5983C35.2445 50.6547 35.5018 50.711 35.7623 50.735C36.6858 50.8205 37.4 51.4 37.9508 52.0528C39.2881 53.6374 41.1191 54.309 42.9487 54.9801L43.0968 55.0344C43.6893 55.2511 44.2264 54.9766 44.7718 54.698C44.865 54.6504 44.9584 54.6027 45.0523 54.5573L45.0983 54.535C46.1173 54.0425 46.3567 53.9267 46.2233 53.0206L46.2083 52.9212C46.1221 52.3521 46.0659 51.9814 46.8706 52.0582C46.9311 52.0648 47.0212 51.8524 47.091 51.688L47.1014 51.6635C47.1099 51.6435 47.118 51.6244 47.1257 51.6069C47.1546 51.5408 47.178 51.4469 47.1995 51.3609L47.1996 51.3609C47.2285 51.2451 47.2539 51.1436 47.284 51.143C48.0185 51.14 47.7236 50.656 47.5759 50.4137L47.5685 50.4015C47.5186 50.3195 47.4689 50.2364 47.4189 50.1528L47.4189 50.1528L47.4189 50.1527L47.4189 50.1527L47.4188 50.1525C47.0891 49.601 46.7478 49.0302 46.2701 48.6475C46.102 48.513 45.944 48.3584 45.7851 48.203L45.785 48.203L45.785 48.203L45.7849 48.2029L45.7849 48.2029L45.7848 48.2028L45.7848 48.2028L45.7847 48.2027L45.7847 48.2027L45.7846 48.2026L45.7846 48.2026L45.7845 48.2026L45.7845 48.2025L45.7845 48.2025L45.7844 48.2024L45.7844 48.2024L45.7843 48.2023L45.7843 48.2023L45.7842 48.2022L45.7842 48.2022L45.7841 48.2022L45.7841 48.2021L45.784 48.2021L45.784 48.202L45.7839 48.202C45.3852 47.8121 44.9813 47.4171 44.4032 47.3209C44.0193 47.2908 43.6732 47.0746 43.4765 46.7419C43.356 46.6059 43.1994 46.5071 43.025 46.4573C42.9143 46.4113 42.8038 46.3647 42.6932 46.3181C42.2137 46.1162 41.7337 45.914 41.2406 45.7546C40.9094 45.6476 40.5709 45.5636 40.2324 45.4797C39.8865 45.3939 39.5406 45.3081 39.2026 45.1978C38.7251 45.0421 38.2343 44.9284 37.75 44.8162L37.7499 44.8162L37.749 44.816C37.6531 44.7938 37.5573 44.7716 37.462 44.7492C37.3526 44.7234 37.2426 44.6955 37.132 44.6675L37.132 44.6674C36.3851 44.4779 35.6145 44.2824 34.8327 44.7004C34.2599 44.9721 33.6726 45.2126 33.0735 45.4207C33.0039 45.8913 32.6662 46.1088 32.3298 46.3253C32.1138 46.4644 31.8984 46.6031 31.755 46.8082C31.838 47.3348 31.8787 47.5931 31.7697 47.741ZM175.145 61.7713C174.556 60.6214 174.265 59.4275 174.61 58.2102C174.456 58.0451 174.313 57.8963 174.179 57.7568L174.178 57.7564L174.177 57.7551L174.177 57.7548C173.91 57.4772 173.679 57.2366 173.471 56.9786C173.064 56.4685 172.53 56.0363 171.93 56.2719C171.213 56.553 170.684 56.5796 170.187 55.954C170.12 55.8891 170.028 55.8581 169.936 55.8701C169.164 56.0395 168.425 55.8756 167.687 55.7117L167.687 55.7116C167.302 55.6262 166.917 55.5407 166.527 55.5026L166.374 55.4872C165.501 55.3991 165.455 55.3944 164.557 56.1491C164.377 56.3007 164.208 56.4663 164.014 56.6564L163.899 56.7686C163.837 56.8293 163.772 56.8924 163.703 56.9583C162.937 56.779 162.183 56.5514 161.446 56.2768C161.245 56.1912 161.027 56.1421 160.809 56.0929C160.35 55.9893 159.889 55.8853 159.585 55.4401C159.195 55.6509 158.81 55.5459 158.46 55.4508C158.232 55.3888 158.02 55.331 157.831 55.367L156.808 56.4759L157.286 57.1332C157.06 57.1136 156.928 57.1022 156.868 57.0966L156.635 57.7122C158.738 58.8878 160.946 59.8616 163.23 60.6203C163.586 60.7191 163.851 61.0216 163.901 61.3886C163.547 61.2606 163.201 61.1412 162.861 61.0241C162.112 60.7662 161.393 60.5189 160.701 60.2132C159.814 59.8214 158.948 59.3802 158.08 58.9383L158.08 58.9381L158.079 58.9378L158.079 58.9374L158.078 58.9371L158.077 58.9368C157.703 58.7463 157.329 58.5557 156.953 58.3688C156.647 59.2811 156.649 59.2825 157.305 59.6693L157.334 59.6867C159.243 60.8134 161.287 61.6502 163.326 62.4844L163.326 62.4845C163.636 62.6115 163.947 62.7385 164.256 62.8665C166.553 63.8153 168.897 64.6777 171.417 64.9212C171.909 64.9689 172.374 64.9102 172.838 64.8516L172.839 64.8515C173.05 64.8249 173.261 64.7983 173.474 64.7817C173.737 64.7252 173.953 64.5392 174.048 64.2872C174.103 63.9064 174.306 63.679 174.525 63.4347L174.567 63.3873C174.609 63.3402 174.651 63.292 174.693 63.2417C174.719 63.21 174.746 63.1777 174.774 63.1449C175.08 62.7824 175.442 62.3528 175.145 61.7713ZM140.032 37.4063C139.708 37.3541 139.395 37.2961 139.089 37.2393C138.439 37.1188 137.82 37.004 137.195 36.962C135.064 36.8185 133.227 35.8932 131.391 34.9682C130.958 34.7505 130.526 34.5328 130.09 34.3253C129.224 33.9127 128.708 33.138 128.198 32.3722L128.198 32.3712C128.103 32.2286 128.008 32.0862 127.911 31.9466C127.838 31.842 127.862 31.6705 127.886 31.4934C127.898 31.4099 127.91 31.3251 127.911 31.2456L127.941 31.2607C128.338 31.466 128.714 31.6606 129.258 31.941L128.081 30.3209C128.15 30.1891 128.224 30.0652 128.295 29.9454C128.451 29.684 128.595 29.4423 128.648 29.182C128.744 28.8015 129.038 28.5038 129.417 28.4035C129.667 28.3031 129.959 28.3044 130.265 28.3057C130.401 28.3063 130.539 28.3068 130.678 28.2985C131.115 29.2802 131.965 29.7504 132.916 30.1928C133.022 30.0605 133.171 29.969 133.323 29.8758C133.593 29.7095 133.872 29.538 133.931 29.1211C134.008 28.9414 134.17 28.8125 134.362 28.7772C134.67 28.7513 134.98 28.7026 135.29 28.6538C136.288 28.4967 137.288 28.3392 138.26 28.944L138.325 28.9849L138.326 28.9853C138.542 29.1213 138.793 29.2795 139.002 29.2524C139.148 29.2337 139.247 29.3261 139.346 29.418C139.482 29.5451 139.618 29.671 139.873 29.4998C140.114 29.3384 140.212 29.5172 140.31 29.6991C140.36 29.7903 140.41 29.8823 140.479 29.9326C140.745 30.1031 140.999 30.2925 141.238 30.4992C141.431 30.7184 141.606 30.9531 141.76 31.2009C141.466 32.6212 141.522 34.0941 141.923 35.4919L140.032 37.4063ZM77.0458 13.3368L77.045 13.3392C76.8521 13.8859 76.6622 14.4242 76.4449 14.9505C76.4275 14.9931 76.291 14.9862 76.1186 14.9775L76.1185 14.9775L76.1182 14.9775C76.0268 14.9728 75.9254 14.9677 75.8264 14.9692C75.8751 15.2296 75.9044 15.4931 75.9142 15.7576C75.8871 16.0483 75.8452 16.3374 75.7886 16.6236L75.7779 16.7014C75.7013 17.262 75.6253 17.8182 74.7941 17.6589C74.7534 17.6511 74.7054 17.6947 74.6549 17.7405C74.6235 17.769 74.5912 17.7984 74.5591 17.8167C74.4084 17.9029 74.2687 18.0006 74.1297 18.0977C73.7196 18.3844 73.3163 18.6664 72.6598 18.6338C72.3792 18.6199 72.092 18.6374 71.8013 18.6551C71.3587 18.682 70.9083 18.7095 70.4619 18.6272C69.7598 18.5432 69.0728 18.359 68.4217 18.0802C67.4135 17.5793 66.4181 17.0833 65.8797 16.0268C65.7671 15.6946 65.6947 15.3502 65.6639 15.0012L66.834 15.0731C66.7589 14.8589 66.6606 14.6495 66.5613 14.4378L66.5612 14.4376C66.2989 13.8785 66.0292 13.3038 66.16 12.5831L67.2945 12.6014L66.6662 11.7366C66.8777 11.5193 67.073 11.2938 67.2661 11.0706C67.6914 10.5793 68.1068 10.0995 68.6645 9.74364C69.0816 9.45232 69.5902 9.32171 70.0975 9.37568C70.3078 9.40482 70.5191 9.41559 70.7309 9.42639C71.14 9.44725 71.5509 9.4682 71.9601 9.62181C72.2435 9.72868 72.5402 9.79993 72.8398 9.87187C73.1324 9.94212 73.4277 10.013 73.716 10.1184C74.3148 10.338 74.8282 10.6893 75.3407 11.0401C75.6476 11.2501 75.9542 11.4599 76.2788 11.6412C76.5638 11.7999 76.7563 12.1262 76.9468 12.4491C77.0328 12.5948 77.1183 12.7398 77.2118 12.8684C77.1566 13.0227 77.1024 13.1764 77.0484 13.3295L77.0458 13.3368ZM45.5979 74.3891L43.748 71.843L43.4929 71.9487C43.5729 72.1696 43.6357 72.4084 43.6985 72.6473L43.6985 72.6473L43.6985 72.6474C43.8411 73.1898 43.9838 73.7323 44.3276 74.0642C44.4713 74.2023 44.6103 74.3498 44.7506 74.4986L44.7507 74.4987C45.1963 74.9713 45.6551 75.458 46.3197 75.7041C46.7116 75.8492 47.0857 76.0492 47.4596 76.249C48.326 76.7121 49.1911 77.1745 50.2728 76.9517C50.8308 77.4281 51.4417 77.2935 52.0282 77.1642C52.1859 77.1295 52.3417 77.0951 52.4943 77.0731C53.4815 76.9309 54.5113 76.7421 54.9542 75.5883C55.2489 74.8206 55.5795 74.0668 55.9068 73.3209L55.9069 73.3207C56.0498 72.9948 56.1921 72.6704 56.3305 72.347C56.0333 71.9913 55.7637 71.6134 55.5241 71.2167C55.1075 70.389 54.3179 70.0042 53.5591 69.7841C53.1156 69.6559 52.7277 69.3809 52.459 69.0041C52.0078 68.7815 51.5685 68.7666 51.1424 68.7521C50.7658 68.7393 50.3995 68.7268 50.0442 68.5719C49.6456 68.4628 49.2202 68.541 48.8883 68.7846C48.7022 68.9363 48.4898 69.0593 48.2765 69.1829L48.2765 69.1829L48.2765 69.1829L48.2764 69.1829L48.2764 69.183L48.2764 69.183L48.2763 69.183L48.2763 69.183L48.2763 69.1831L48.2763 69.1831L48.2762 69.1831L48.2762 69.1831L48.2762 69.1831L48.2762 69.1832L48.2761 69.1832L48.2761 69.1832L48.2761 69.1832L48.276 69.1832L48.276 69.1833L48.276 69.1833L48.276 69.1833C47.7928 69.4632 47.3053 69.7457 47.1086 70.3692C47.0786 70.4645 46.912 70.5085 46.7326 70.5559L46.7326 70.5559C46.6086 70.5887 46.4786 70.623 46.3834 70.677C46.3097 70.7187 46.2639 70.8097 46.2032 70.9303C46.1709 70.9944 46.1345 71.0668 46.0874 71.1446C45.9491 70.8872 45.7707 70.6534 45.5588 70.4523C45.3534 70.3136 44.9181 70.1936 44.81 70.2993C44.5059 70.6286 44.2544 71.0031 44.0641 71.4095C43.9094 71.7046 44.0868 71.912 44.2591 72.1134C44.3102 72.1732 44.361 72.2325 44.4024 72.2933C44.4847 72.4145 44.5691 72.5342 44.6536 72.6541L44.6536 72.6542C45.0304 73.1886 45.408 73.7242 45.5979 74.3891ZM75.8969 68.1038L73.1009 67.6521C72.7575 67.2286 72.4437 66.7818 72.1618 66.3151C72.0609 66.128 72.1803 65.781 72.2893 65.5489C72.3179 65.4877 72.4687 65.4842 72.6191 65.4808C72.6846 65.4793 72.7501 65.4778 72.8053 65.4715C72.7942 65.4037 72.7797 65.3344 72.765 65.2646C72.6793 64.8551 72.5894 64.4261 73.1541 64.1633C73.2882 64.1138 73.3988 64.0159 73.4644 63.8887C73.583 63.4444 73.7224 62.9764 74.1665 62.8118C74.318 62.7555 74.4703 62.6945 74.6233 62.6331C75.274 62.3723 75.9392 62.1056 76.6267 62.174C78.3055 62.3417 79.9908 62.6247 81.451 63.5675C82.3336 64.1159 83.1619 64.748 83.9243 65.4551C84.3222 65.8279 84.4731 66.3949 84.3124 66.9138C84.1863 67.2835 84.068 67.6562 83.9497 68.0288L83.9497 68.0289L83.9496 68.0292L83.9495 68.0293L83.9495 68.0296L83.9494 68.0297L83.9493 68.03L83.9493 68.0301L83.9492 68.0304L83.9491 68.0305L83.9491 68.0308L83.949 68.0309L83.9489 68.0312L83.9489 68.0313L83.9488 68.0316L83.9487 68.0317L83.9486 68.032L83.9486 68.0321L83.9485 68.0324L83.9485 68.0325C83.7604 68.6249 83.5724 69.2172 83.3527 69.7974C83.2242 70.1401 82.9925 70.4337 82.6895 70.6378C80.8672 71.7338 79.0563 71.8097 77.135 70.2297C77.0435 70.1544 76.94 70.086 76.8367 70.0177C76.6241 69.8771 76.4126 69.7372 76.3086 69.5399C76.1198 69.0773 75.9818 68.5957 75.8969 68.1038ZM109.328 108.229L109.986 108.841C109.878 108.341 109.706 107.973 109.156 107.811C108.806 107.707 108.487 107.526 108.167 107.343L108.167 107.343C107.734 107.097 107.297 106.848 106.77 106.783C106.442 106.768 106.116 106.714 105.8 106.623C103.947 105.841 102.091 105.989 100.215 106.392L100.172 106.401L100.142 106.408C99.9252 106.452 99.6359 106.512 99.6066 106.623C99.5135 106.978 99.2742 107.043 99.0205 107.112C98.9599 107.129 98.8984 107.145 98.838 107.166C98.6626 107.227 98.4085 107.364 98.3842 107.502C98.302 107.968 98.0652 108.342 97.8264 108.719L97.8264 108.719C97.7748 108.801 97.7232 108.882 97.6731 108.965C97.6107 109.068 97.5035 109.275 97.8161 109.374C97.9695 109.423 98.0956 109.558 98.2394 109.712C98.3091 109.787 98.383 109.867 98.4662 109.943C97.6785 110.072 97.1082 110.292 97.1299 111.012C97.3034 111.125 97.4675 111.246 97.6278 111.365L97.6279 111.365L97.6279 111.365L97.628 111.365L97.628 111.365L97.6281 111.365L97.6282 111.365L97.6282 111.365L97.6283 111.365L97.6283 111.365L97.6284 111.366L97.6284 111.366L97.6285 111.366L97.6286 111.366L97.6286 111.366L97.6287 111.366L97.6287 111.366L97.6288 111.366L97.6289 111.366C97.9718 111.62 98.2978 111.861 98.6625 111.976C99.0137 112.087 99.3524 112.244 99.6912 112.401C100.416 112.736 101.142 113.072 101.993 112.96C103.587 113.715 105.237 113.549 106.892 113.383L106.893 113.383L106.894 113.383C107.033 113.369 107.172 113.355 107.311 113.342C107.872 113.346 108.37 112.987 108.542 112.453C108.55 112.43 108.559 112.405 108.568 112.38C108.642 112.166 108.733 111.907 109.156 111.954C109.327 111.935 109.481 111.841 109.576 111.697C109.67 111.553 109.695 111.373 109.644 111.208C109.484 110.788 109.534 110.347 109.584 109.905C109.648 109.335 109.713 108.762 109.328 108.229ZM141.376 1.50145L140.979 0.75218C141.026 0.752006 141.067 0.74818 141.104 0.744786C141.172 0.73855 141.224 0.73377 141.259 0.755763C141.489 0.898368 141.722 1.03469 141.955 1.17099L141.955 1.17125C142.579 1.53613 143.203 1.90094 143.753 2.38615L143.832 2.45555C144.281 2.84845 144.708 3.22242 144.521 3.92122C144.469 4.11322 144.567 4.30783 144.664 4.50247C144.821 4.81788 144.979 5.13342 144.504 5.43828C144.563 6.23227 143.997 6.58357 143.448 6.9238L143.406 6.95011C143.577 7.3817 143.719 7.82432 143.831 8.2749C143.921 8.77148 143.432 9.28629 142.699 9.55256C142.631 9.57716 142.552 9.58551 142.475 9.59373C142.362 9.6057 142.252 9.61738 142.182 9.67864L142.157 9.70016C141.263 10.4774 141.261 10.4791 140.291 10.0049C139.79 9.79278 139.302 9.55263 138.828 9.28557C138.319 8.93902 137.685 8.83054 137.092 8.98829C136.155 9.20603 135.17 8.92167 134.488 8.23678C133.869 7.62633 133.729 6.75458 133.981 5.8061L134.494 5.96034L134.509 5.96464L134.608 5.99463L134.644 6.0054L134.654 6.00826L134.659 6.00998L134.684 6.01744C135.072 6.13407 135.494 6.26103 136.007 6.41488C135.875 6.23308 135.756 6.07061 135.646 5.92103L135.643 5.91679L135.64 5.91273L135.637 5.90882L135.635 5.90507L135.632 5.90146C135.402 5.58796 135.214 5.33056 135.032 5.06863C134.815 4.75655 134.833 4.72586 135.056 4.36492C135.112 4.27317 135.182 4.16008 135.265 4.0156C135.363 3.84325 135.519 3.70437 135.676 3.56546C135.98 3.29552 136.285 3.02548 136.16 2.50946L137.401 1.53371C138.164 0.931616 138.924 0.511374 139.928 1.12407C140.201 1.2915 140.54 1.34868 140.891 1.40782C141.052 1.43499 141.215 1.46257 141.376 1.50145ZM26.8989 91.2692C27.5027 91.9494 28.4836 92.1438 29.2946 91.7439L28.9809 90.4446C29.6425 90.938 30.2689 91.2182 31.0696 90.7604C31.0132 90.4544 30.9723 90.1458 30.9472 89.8358C30.9439 89.7543 30.9618 89.6664 30.9796 89.5794C31.0297 89.3342 31.0784 89.0956 30.6474 89.0244L31.3912 88.5655C31.2929 88.0771 31.162 87.4242 31.0395 86.8125C31.1264 86.7776 31.2118 86.744 31.2959 86.7108L31.2974 86.7102C31.5659 86.6043 31.8209 86.5037 32.0691 86.3888C32.1137 86.3698 32.1403 86.1882 32.1018 86.1418C32.018 86.0417 31.8604 85.8965 31.781 85.9215C31.7013 85.9465 31.6275 86.0089 31.556 86.0694C31.4699 86.1422 31.3873 86.212 31.3024 86.2097C31.2069 86.2077 31.1128 86.1118 30.9847 85.9811C30.918 85.9131 30.842 85.8357 30.7519 85.7572L31.5322 85.8356C31.3341 85.563 31.1396 85.2949 30.9477 85.0304L30.9476 85.0302L30.9474 85.03C30.2429 84.0591 29.5741 83.1373 28.8971 82.2218C28.8562 82.1668 28.7827 82.1382 28.7076 82.1091C28.6493 82.0865 28.59 82.0635 28.5443 82.0273C28.292 81.8277 28.0023 81.6737 27.7183 81.5227C27.1581 81.2249 26.62 80.9389 26.434 80.3373C25.752 79.8784 25.2739 80.171 24.8244 80.446C24.5295 80.6265 24.247 80.7993 23.9273 80.7477C23.8344 80.9357 23.7578 81.1347 23.6832 81.3288C23.5226 81.7463 23.371 82.1406 23.0845 82.3513C22.7704 82.5824 22.6591 82.9127 22.55 83.2365C22.4387 83.5666 22.3297 83.8901 22.0104 84.095C21.9284 84.1475 21.9302 84.5007 22.0206 84.621C22.1829 84.8374 22.2575 85.0848 22.333 85.335C22.4172 85.6142 22.5025 85.8969 22.7119 86.1443C23.5343 87.1122 24.2832 88.1403 24.9523 89.2199C25.3061 89.7942 25.788 90.2334 26.2664 90.6696C26.4819 90.8661 26.6967 91.0619 26.8989 91.2692ZM155.468 83.4289L155.468 83.4291L155.468 83.4293C154.941 83.7612 154.468 84.0592 154.636 84.8162C153.659 84.5175 153.259 84.0914 153.385 83.1982C153.417 82.9713 153.424 82.7441 153.431 82.5157L153.431 82.5156L153.431 82.5155L153.431 82.5155L153.431 82.5154L153.431 82.5154L153.431 82.5153L153.431 82.5152L153.431 82.5152L153.431 82.5151L153.431 82.515L153.431 82.515L153.431 82.5149L153.431 82.5148L153.431 82.5148L153.431 82.5147C153.443 82.1227 153.455 81.7275 153.593 81.325C153.704 81.0026 153.652 80.6295 153.599 80.2506C153.56 79.9732 153.521 79.6926 153.545 79.4263C153.574 79.091 153.706 78.7654 153.837 78.4397C153.896 78.2945 153.955 78.1492 154.004 78.0032L154.676 78.105L154.41 78.9034L154.575 79.0012L155.318 78.2577C155.364 78.2751 155.422 78.306 155.487 78.3409C155.658 78.4332 155.882 78.5532 156.082 78.5239C157.743 78.2797 159.274 78.7738 160.789 79.3226C161.084 79.4293 161.35 79.6125 161.617 79.7965L161.618 79.7967C161.801 79.9231 161.985 80.0499 162.18 80.1525L162.369 80.2523C163.389 80.7884 163.641 80.9205 164.108 81.8512C164.466 82.5635 164.843 83.3259 164.723 84.2063C164.651 84.5659 164.699 84.9401 164.861 85.2706C165.316 85.9506 165.031 86.319 164.476 86.6703C164.318 86.7724 164.178 86.8991 164.061 87.0458C163.317 87.9696 163.203 88.0132 162.222 87.6343C161.012 87.1673 159.974 86.4155 158.938 85.6651L158.938 85.665C158.729 85.514 158.521 85.3631 158.311 85.2146C157.697 84.78 157.107 84.3109 156.525 83.8479L156.525 83.8473C156.268 83.6431 156.013 83.44 155.757 83.2416C155.662 83.3071 155.564 83.3686 155.468 83.4289ZM130.876 81.1678C131.017 81.151 131.159 81.1342 131.301 81.1186C131.138 80.6112 131.168 80.0827 131.66 80.0816C132.363 80.0822 132.202 79.7048 132.064 79.3961C132.037 79.336 132.004 79.2764 131.971 79.2173C131.857 79.0132 131.747 78.8133 131.895 78.6091C132.127 78.2909 132.105 77.9486 132.083 77.6108C132.074 77.4654 132.065 77.3207 132.076 77.1792C132.106 76.7983 132.014 76.2563 131.76 76.0368C131.309 75.6814 130.786 75.4296 130.229 75.2993C129.903 75.2125 129.559 75.1984 129.215 75.1843C128.988 75.175 128.761 75.1657 128.538 75.1357C128.255 75.0978 127.973 75.0496 127.691 75.0014C126.891 74.8644 126.091 74.7274 125.272 74.8269C124.913 74.8707 124.549 74.8712 124.184 74.8716L124.184 74.8716C123.499 74.8724 122.815 74.8733 122.166 75.1617C121.55 75.4895 120.844 75.6065 120.153 75.4951C119.385 75.3463 119.107 75.6575 118.816 76.5038C118.781 76.6056 118.729 76.72 118.677 76.8352C118.555 77.1062 118.43 77.3817 118.517 77.5075C118.744 77.8346 118.559 77.974 118.375 78.1129C118.206 78.2407 118.037 78.3681 118.19 78.6409C119.578 79.4526 121.196 79.8371 122.806 80.2194C122.99 80.2632 123.174 80.3069 123.358 80.3512C124.502 80.6272 125.67 80.795 126.839 80.9629L126.84 80.963C127.409 81.0448 127.978 81.1266 128.545 81.2208C129.331 81.3514 130.097 81.2603 130.876 81.1678ZM169.46 38.9959L169.46 38.9958L169.41 38.9735C168.257 38.4598 167.141 37.8651 166.07 37.1939C165.839 37.047 165.596 36.9121 165.352 36.7764C164.475 36.2894 163.58 35.7921 163.131 34.6956C163.802 34.6842 164.33 35.005 164.877 35.3375C165.375 35.6402 165.889 35.9527 166.542 36.0329C165.962 35.4126 165.295 34.9897 164.602 34.5502C164.069 34.2128 163.522 33.8657 162.986 33.412L164.071 33.277C163.958 33.0436 163.839 32.799 163.72 32.5553L164.685 31.5273C164.754 31.5552 164.83 31.5882 164.913 31.6237L164.913 31.6238L164.914 31.6244C165.118 31.7119 165.358 31.815 165.604 31.8981C166.945 32.3506 166.956 32.3473 168.447 31.9107L168.484 31.8999C168.659 31.8559 168.838 31.8312 169.019 31.8263C170.391 31.741 171.735 31.7926 173.006 32.455C173.586 32.7448 174.105 33.1449 174.534 33.6326C174.629 33.7313 174.754 33.7958 174.889 33.8161C175.013 33.8271 175.123 33.9026 175.177 34.0149C175.232 34.1273 175.223 34.2598 175.155 34.3637C174.983 34.743 174.968 35.1444 174.952 35.5451C174.939 35.869 174.927 36.1925 174.832 36.5036C174.768 36.7807 174.828 37.0725 174.995 37.3036C175.192 37.6794 174.849 38.5996 174.49 38.7522C174.415 38.7836 174.324 38.7753 174.232 38.767C174.048 38.7503 173.863 38.7336 173.817 39.0324C173.794 39.2737 173.786 39.5163 173.795 39.7587C172.068 40.1731 170.75 39.578 169.46 38.9959ZM114.877 40.4945L115.51 39.8519C115.474 39.483 115.225 39.2728 114.974 39.0614C114.748 38.8702 114.52 38.678 114.447 38.3666C114.37 38.2259 114.207 38.1565 114.053 38.1991C113.899 38.2417 113.795 38.385 113.803 38.545C113.794 38.6038 113.662 38.6431 113.531 38.6824C113.47 38.7004 113.41 38.7185 113.362 38.7384C113.347 38.6977 113.325 38.6481 113.304 38.5985C113.258 38.4922 113.212 38.3859 113.235 38.3675C113.844 37.8868 113.275 37.497 113.027 37.3353C112.82 37.1997 112.614 37.06 112.407 36.9202C111.565 36.3495 110.719 35.7759 109.743 35.461L109.73 35.4567C109.224 35.2933 108.579 35.0852 108.362 35.9337C108.349 35.9768 108.245 36.0214 108.181 36.0246C107.479 36.0599 107.32 36.4573 107.465 37.0742C107.592 37.6128 107.269 37.5591 107.017 37.5171L106.973 37.51L106.701 38.4975L107.703 39.3169C107.523 39.3358 107.36 39.2822 107.201 39.2296C106.929 39.1398 106.667 39.0532 106.343 39.338L106.362 39.5205L106.362 39.5209L106.362 39.5219L106.362 39.523L106.362 39.5233L106.362 39.5243C106.381 39.7024 106.402 39.9008 106.421 40.0995C106.43 40.196 106.452 40.3046 106.474 40.4133C106.524 40.654 106.573 40.895 106.475 41.0051C106.068 41.4607 106.37 41.6398 106.643 41.8016C106.678 41.8227 106.713 41.8435 106.746 41.8645C107.125 42.1072 107.515 42.3318 107.905 42.5565C108.179 42.7145 108.453 42.8724 108.723 43.0367C108.875 43.1505 109.015 43.2793 109.142 43.4213L108.995 43.622C108.064 43.0915 107.132 42.561 106.086 41.965C106.442 42.8146 107.013 43.1508 107.64 43.5107C108.634 44.0765 109.696 44.5119 110.799 44.806C112.196 45.1828 113.626 45.2983 114.77 44.0909C114.87 44.0008 114.979 43.9204 115.095 43.8508L115.563 40.8284L114.877 40.4945ZM92.8413 17.632L93.6854 17.7686L93.4782 17.4011C93.3582 17.1881 93.2455 16.9883 93.1264 16.7773C93.2484 16.6422 93.3701 16.5038 93.4927 16.3643C93.783 16.0341 94.0787 15.6978 94.3977 15.3849C94.6754 15.1136 94.992 14.8852 95.3371 14.7073C95.4465 14.6511 95.5338 14.7196 95.6326 14.7971C95.7687 14.904 95.9268 15.0281 96.1954 14.867C96.4431 14.7179 96.8742 14.915 97.267 15.0946L97.2673 15.0948L97.2679 15.095L97.2692 15.0956C97.3498 15.1325 97.4288 15.1686 97.5043 15.2008C97.6203 15.2503 97.718 15.3631 97.8169 15.4772C98.0255 15.7179 98.2393 15.9646 98.6409 15.6362L99.5448 16.7455C99.5651 16.7702 99.5881 16.7927 99.6113 16.8152L99.6309 16.8344L99.6418 16.8454L102.676 17.3354C102.858 17.1826 103.052 17.0446 103.256 16.9227C103.583 16.7571 104.11 16.8198 104.092 17.1101C104.07 17.4554 104.29 17.5709 104.499 17.6806C104.68 17.7758 104.853 17.8666 104.852 18.0993C104.14 19.0373 103.875 19.2763 103.038 19.6848C103.517 19.9543 103.935 20.1892 104.461 20.4842C104.45 20.544 104.447 20.6205 104.443 20.7016C104.435 20.8933 104.426 21.1101 104.317 21.1879C104.109 21.3365 103.907 21.4984 103.705 21.6605C102.958 22.2606 102.206 22.864 101.127 22.813C100.755 22.8349 100.382 22.8162 100.014 22.757C99.3321 22.5669 98.663 22.3281 97.9946 22.0894L97.781 22.0132L97.6545 21.9682C97.431 21.8889 97.2122 21.7965 96.9934 21.7041C96.8343 21.6369 96.6752 21.5696 96.5142 21.5075C96.2903 21.4207 96.0984 21.2695 95.9065 21.1182C95.591 20.8695 95.2756 20.6209 94.8185 20.6596C94.5869 20.2167 94.1925 20.0056 93.7894 19.7898L93.7892 19.7896C93.6656 19.7235 93.5413 19.6569 93.4205 19.5831C93.0791 19.4065 92.824 19.098 92.7145 18.7293C92.6051 18.3607 92.6509 17.9641 92.8413 17.632ZM44.7521 25.695L43.6634 26.486C42.8948 26.9247 42.2382 27.535 41.7442 28.2699C41.5315 28.5828 41.4091 28.9446 41.2857 29.3093C41.1603 29.6799 41.0339 30.0534 40.8109 30.3814C40.7603 30.4553 40.8266 30.6676 40.9043 30.7599C41.142 31.0469 41.3998 31.3167 41.6757 31.5671C42.1942 32.0309 42.8297 32.2329 43.4672 32.4356C43.6588 32.4965 43.8506 32.5575 44.0394 32.6256C45.6508 33.2063 47.2063 33.3899 48.6741 32.2796C48.7785 32.1898 48.9123 32.1414 49.0504 32.1438C49.5593 32.2442 49.688 31.937 49.8161 31.6311C49.8861 31.4639 49.956 31.2971 50.0877 31.1975C50.0387 30.4643 50.3586 29.8368 50.6705 29.225C50.7811 29.0081 50.8907 28.7931 50.9825 28.5761C51.2948 27.8378 51.1966 27.3705 50.7218 26.9652C50.6275 26.8847 50.5336 26.8024 50.4394 26.7199C49.7023 26.0741 48.9501 25.4151 47.852 25.4462C47.7048 25.4499 47.5556 25.4128 47.406 25.3757C47.0928 25.2979 46.7781 25.2197 46.4771 25.5152C46.3684 25.5821 46.2326 25.5876 46.1181 25.5298C45.6277 25.0388 45.2499 25.3224 44.8699 25.6075C44.8307 25.637 44.7915 25.6664 44.7521 25.695ZM83.5938 85.4218C83.9648 85.5696 84.2375 85.6783 84.7674 85.8892C84.6729 85.7144 84.6028 85.5838 84.5474 85.4805L84.5471 85.4799L84.5468 85.4794C84.4586 85.315 84.4076 85.2199 84.3539 85.1258L84.3529 85.124C84.2203 84.8917 84.1486 84.7661 84.1627 84.651C84.1792 84.5154 84.3144 84.3943 84.6089 84.1307L84.6104 84.1294C84.6278 84.1138 84.6487 84.0974 84.67 84.0806C84.7324 84.0317 84.7987 83.9796 84.7956 83.9341C84.7347 83.3807 85.0754 82.8645 85.6067 82.7055C86.1909 82.4679 86.817 82.3487 87.4488 82.3546C89.8104 82.5321 91.8766 83.5687 93.8245 84.846C94.052 84.9951 94.2078 85.2543 94.3627 85.5118C94.4338 85.6302 94.5048 85.7483 94.5825 85.8552L94.0958 86.1322C94.4345 86.5363 94.5678 86.9207 94.1467 87.3811C94.0134 87.5777 93.9862 87.8282 94.0739 88.0502C94.2657 88.3765 94.0943 88.5548 93.9261 88.7297C93.8115 88.8489 93.6984 88.9666 93.7029 89.1284C93.3659 88.9923 93.1829 89.1939 92.9986 89.3968C92.8379 89.5737 92.6763 89.7516 92.4111 89.7076C92.2196 89.6757 92.0205 89.663 91.822 89.6504C91.4539 89.6269 91.0879 89.6036 90.7762 89.4579C89.7035 88.9885 88.6838 88.4047 87.7349 87.7167C87.3499 87.377 86.845 87.2072 86.3352 87.2458C85.545 87.347 84.7415 87.1948 84.04 86.8112L84.0162 86.7978C83.4361 86.4707 83.4318 86.4684 83.5938 85.4218ZM95.3681 55.1244C95.4494 55.2822 95.5509 55.4287 95.67 55.5604C96.1216 55.7143 96.569 55.8129 97.0075 55.9097C97.216 55.9556 97.4224 56.0011 97.6263 56.052C98.8892 56.3711 100.187 56.6964 101.556 56.3583C102.47 56.1321 103.062 55.5718 103.072 54.8082C103.075 54.5894 103.152 54.3761 103.228 54.1637C103.366 53.7837 103.502 53.4069 103.21 53.0079C103.788 52.4473 103.288 51.9903 102.941 51.7231C101.973 50.9755 100.968 50.238 99.7381 49.9699C99.5117 49.9205 99.2761 49.9167 99.0403 49.9128L99.0402 49.9128C98.8221 49.9093 98.6039 49.9058 98.3926 49.8662C98.0431 49.8008 97.7011 49.6943 97.3319 49.5793L97.3317 49.5793C97.1642 49.5271 96.9911 49.4732 96.8091 49.4206L95.3205 51.0166L95.4189 51.212L95.4847 51.3427L95.4859 51.3451C95.5695 51.5113 95.6542 51.6798 95.7575 51.8837L93.6653 51.7601C93.6374 51.9122 93.6236 52.0743 93.6106 52.2271C93.5842 52.538 93.561 52.8104 93.4288 52.8816C93.2144 52.9973 93.0923 53.1701 92.9702 53.3429C92.8504 53.5124 92.7306 53.682 92.5235 53.7978C92.7266 53.8605 92.9119 53.7629 93.0906 53.6688C93.3674 53.523 93.6282 53.3857 93.9144 53.8659L93.1908 54.0279C93.4127 54.7234 93.9387 54.6756 94.4852 54.6261L94.4856 54.626C94.5393 54.6212 94.5931 54.6163 94.6469 54.6121C94.4359 54.4489 94.2259 54.2845 93.9654 54.081C94.1009 54.005 94.2484 53.9526 94.4018 53.9262C94.5896 53.931 94.7733 53.9839 94.9353 54.08C94.9774 54.1081 94.984 54.1823 94.9911 54.261C94.9976 54.333 95.0044 54.4087 95.039 54.4563C95.0784 54.5093 95.1457 54.5442 95.2118 54.5785C95.2846 54.6163 95.356 54.6534 95.3868 54.7131C95.4147 54.7668 95.3972 54.8428 95.3795 54.9195C95.3624 54.9934 95.3452 55.068 95.3681 55.1244ZM126.287 56.8286L127.017 56.6045C126.648 56.0479 126.12 55.9282 125.584 55.8067C125.128 55.7035 124.668 55.5991 124.295 55.2244C124.511 55.1553 124.735 55.1107 124.961 55.0915C125.311 55.1265 125.659 55.1795 126.003 55.2504C125.718 54.9078 125.322 54.6771 124.885 54.5995C124.925 53.9238 124.942 53.6269 125.079 53.4023C125.186 53.2264 125.366 53.0949 125.687 52.8602C125.91 52.91 126.137 52.977 126.365 53.0445L126.366 53.0446C126.891 53.1998 127.428 53.3581 127.948 53.3177C128.449 53.2789 128.868 53.44 129.285 53.5999C129.553 53.7028 129.819 53.8052 130.106 53.8537C130.815 54.0231 131.495 54.2977 132.124 54.6684C132.5 54.8375 132.819 55.1138 133.041 55.4626C133.258 55.8881 133.504 56.5664 133.314 56.8697C133.097 57.218 133.19 57.4411 133.286 57.6699C133.327 57.7692 133.369 57.8697 133.387 57.9819C133.464 58.4886 133.464 59.0364 133.044 59.4625C132.955 59.5528 132.875 59.6703 132.797 59.786L132.797 59.7861C132.659 59.9892 132.524 60.1869 132.351 60.2224C131.684 60.3845 130.992 60.4163 130.312 60.3161C129.076 60.0592 127.857 59.7229 126.663 59.3093C126.464 59.2431 126.31 59.0382 126.129 58.7971L126.129 58.797L126.129 58.7969C126.037 58.6744 125.938 58.5426 125.823 58.4148L126.528 58.4522C126.177 58.0923 126.226 57.711 126.271 57.351C126.294 57.1697 126.316 56.9937 126.287 56.8286ZM150.826 104.966L151.707 104.856C151.352 104.504 150.974 104.177 150.574 103.876C150.398 103.764 150.018 103.703 149.909 103.807C149.669 104.035 149.4 104.003 149.15 103.974C148.989 103.955 148.835 103.937 148.701 103.991C148.364 104.127 148.073 104.068 147.785 104.009C147.672 103.986 147.56 103.963 147.445 103.952C147.212 103.93 146.976 103.875 146.742 103.821C146.344 103.73 145.95 103.64 145.581 103.705C145.214 103.77 144.878 103.718 144.545 103.667C144.331 103.634 144.118 103.602 143.899 103.601C143.514 103.6 143.129 103.606 142.744 103.612L142.744 103.612L142.744 103.612L142.743 103.612L142.743 103.612L142.742 103.612L142.741 103.612L142.542 103.615C142.439 103.616 142.336 103.618 142.233 103.619L140.956 104.547C141.395 104.885 141.171 105.048 140.946 105.213C140.769 105.341 140.592 105.471 140.729 105.685C140.833 105.858 141.031 105.877 141.231 105.897C141.509 105.925 141.791 105.952 141.83 106.394C141.728 106.385 141.623 106.368 141.52 106.351C141.109 106.283 140.712 106.217 140.51 106.708C141.04 107.37 141.784 107.47 142.529 107.571L142.636 107.585C142.781 107.597 142.926 107.621 143.067 107.658C144.589 108.166 146.147 108.56 147.726 108.836C147.911 108.867 148.088 108.943 148.265 109.018C148.429 109.089 148.594 109.159 148.765 109.194L148.836 109.208C149.465 109.338 150.116 109.472 150.66 108.947C150.508 108.671 150.24 108.57 149.978 108.471C149.662 108.352 149.353 108.235 149.263 107.817L151.33 108.152L151.69 107.332L150.197 106.441C151.232 106.22 151.26 106.123 150.826 104.966ZM85.9397 31.3759C86.0854 31.2843 86.196 31.1754 86.3013 31.0718C86.5035 30.8728 86.6858 30.6934 87.0586 30.6935L86.7035 31.2026C86.8348 31.3039 86.9671 31.4043 87.0994 31.5047L87.0996 31.5049L87.0999 31.505L87.1001 31.5052L87.1004 31.5054C87.4567 31.7757 87.8133 32.0462 88.1507 32.3367C88.2698 32.4391 88.3827 32.7298 88.3232 32.8284C88.1314 33.1477 88.1306 33.4911 88.1298 33.831C88.1292 34.0716 88.1286 34.3103 88.0605 34.5376C87.9563 34.7888 87.7901 35.009 87.5773 35.1776C87.5281 35.2225 87.4422 35.227 87.3565 35.2315C87.2712 35.2359 87.1861 35.2404 87.1374 35.2845C87.0293 35.4311 86.949 35.5966 86.9007 35.7726L86.8484 35.7313C86.1746 35.1982 86.1398 35.1706 85.169 35.4686C84.7991 35.5823 84.4885 35.4711 84.1735 35.3582C83.9814 35.2894 83.7877 35.22 83.5779 35.2008L83.6609 35.6293L83.7064 35.8636C83.6384 35.8508 83.5627 35.8454 83.4887 35.8402C83.3343 35.8294 83.187 35.819 83.1319 35.7424C82.1111 34.3242 82.0865 34.2929 80.8296 33.9121C80.8906 34.4551 81.2631 34.6228 81.6574 34.8005C81.9186 34.9181 82.1895 35.0401 82.3856 35.2785C82.3233 35.3104 82.2557 35.3538 82.1898 35.396C82.0537 35.4834 81.9255 35.5657 81.8691 35.5306C81.7453 35.454 81.6186 35.3807 81.4922 35.3076C80.764 34.8864 80.0421 34.4688 79.8951 33.4242C79.8884 33.3762 79.8813 33.3316 79.8746 33.2898C79.8284 33.0007 79.8043 32.8495 80.0876 32.6365C80.2862 32.4529 80.4335 32.2207 80.5153 31.9624C80.693 31.512 80.8526 31.0545 81.0196 30.5758L81.0196 30.5757L81.0199 30.5749C81.0889 30.3772 81.1591 30.1759 81.2324 29.9699L81.6382 30.1214C81.8894 30.117 82.0115 29.9286 82.116 29.7672C82.259 29.5464 82.3693 29.3761 82.7329 29.7966C82.8019 29.8762 82.8603 29.7943 82.9299 29.6966C83.0411 29.5408 83.1809 29.3447 83.4382 29.6989C83.5505 29.8534 83.8584 29.866 84.1545 29.8781L84.1546 29.8781L84.1547 29.8781C84.2859 29.8835 84.4147 29.8887 84.5233 29.9062C84.56 30.0414 84.5955 30.1733 84.6305 30.3035L84.7143 30.6143C84.8018 30.613 84.8893 30.6114 84.9767 30.6097L84.9289 30.2854L84.8466 29.7275C85.1831 29.8749 85.4186 29.978 85.656 30.0819L85.9525 30.2117C85.949 30.5706 85.9444 30.9734 85.9397 31.3759ZM70.6556 95.23L72.0505 95.6236C72.1211 95.4296 72.1693 95.228 72.1944 95.0228C72.162 94.8462 72.1194 94.6715 72.0668 94.4996L72.0614 94.4718L72.0614 94.4717C72.0297 94.3081 71.9794 94.048 72.0197 94.0314C72.3388 93.9004 72.4054 93.601 72.4718 93.3023C72.543 92.9822 72.6141 92.6629 72.9957 92.553C72.971 92.432 72.94 92.3123 72.9026 92.1944C72.5879 92.2539 72.5083 92.0516 72.4295 91.8515C72.3881 91.7464 72.3469 91.6418 72.272 91.5762C71.9494 91.2935 71.5733 91.154 71.2015 91.016C70.9386 90.9185 70.6778 90.8218 70.4397 90.6758C69.4133 90.0378 68.2554 89.6446 67.0558 89.5264L64.8925 91.6189L65.7319 92.7742C65.4998 92.8421 65.2656 92.7891 65.0385 92.7378C64.7126 92.6641 64.4012 92.5937 64.1315 92.8885C64.464 93.6437 64.9432 94.2585 65.666 94.5003C66.2641 94.7005 66.8421 94.9482 67.4193 95.1956C67.976 95.4343 68.5321 95.6726 69.1051 95.8677C69.6449 96.0823 70.231 96.1498 70.8036 96.0635L70.6556 95.23ZM108.6 90.9971L109.856 91.7439L109.654 91.008C109.662 91.0073 109.671 91.0062 109.681 91.0049C109.697 91.0024 109.715 90.9989 109.732 90.9955C109.79 90.9842 109.846 90.973 109.875 90.996C110.268 91.3218 110.737 91.5404 111.238 91.6305C111.55 91.7047 111.851 91.8216 112.132 91.9779C112.609 92.2523 113.189 92.2712 113.68 92.0283C113.644 91.8191 113.606 91.6033 113.588 91.5031L114.589 91.5199C114.631 91.5782 114.666 91.6217 114.693 91.6545C114.734 91.7048 114.754 91.73 114.748 91.7449C114.66 91.9779 114.565 92.2082 114.474 92.4268L114.404 92.5979C114.697 92.8798 114.963 93.1359 115.36 93.519L114.241 93.7143L114.363 94.4225L114.466 95.0239L113.943 95.5041L114.326 96.0314C114.058 96.9084 113.529 97.2007 112.673 97.1026C112.32 97.062 111.964 97.0404 111.603 97.0184L111.603 97.0184C111.013 96.9824 110.41 96.9457 109.78 96.8242L110.155 95.8141C109.665 95.4281 109.099 95.1501 108.495 94.9986C108.048 94.8773 107.632 94.6419 107.224 94.4105L107.223 94.4104C107.046 94.3099 106.87 94.2102 106.693 94.1209C106.72 93.5834 107.04 93.5455 107.378 93.5055C107.468 93.4949 107.558 93.4842 107.645 93.464C107.621 93.4223 107.601 93.3766 107.582 93.3319C107.541 93.2378 107.501 93.1481 107.433 93.1084C106.808 92.7446 106.718 92.4063 107.202 92.0187C107.518 91.7668 107.848 91.5328 108.173 91.3022C108.317 91.2003 108.46 91.099 108.6 90.9971ZM79.61 120.504L78.4431 120.076L78.4277 120.118L78.4035 120.183C78.2904 120.481 78.1909 120.743 78.4097 121.115C78.9073 121.96 79.7024 122.401 80.4949 122.84C80.6988 122.953 80.9026 123.066 81.101 123.185C81.4991 123.425 82.1719 123.109 82.5653 122.666C82.7267 122.493 82.9097 122.341 83.1097 122.214C83.6235 121.915 83.8082 121.262 83.5282 120.733C83.3567 120.343 83.2745 120.058 83.5524 119.703C83.8189 119.408 83.8016 118.953 83.5134 118.675C83.4875 118.644 83.4609 118.614 83.4341 118.583C83.2164 118.331 82.9923 118.073 83.1059 117.657C83.0783 117.463 82.9545 117.295 82.7772 117.212C82.6875 117.181 82.5655 117.211 82.4512 117.24C82.3307 117.27 82.2188 117.298 82.1626 117.249C82.0924 117.189 82.082 117.066 82.0711 116.939C82.0612 116.823 82.0509 116.702 81.9938 116.622C81.5949 116.062 80.9717 116.069 80.4172 116.216C80.2685 116.256 80.1377 116.346 80.0037 116.438C79.8016 116.578 79.5922 116.723 79.3033 116.704C79.2769 116.703 79.2454 116.863 79.2084 117.053L79.2083 117.053L79.2083 117.053C79.1788 117.204 79.1457 117.374 79.1088 117.493C79.0451 117.623 78.9646 117.744 78.8694 117.853L79.5739 118.823C79.2113 118.626 79.0289 118.528 78.8793 118.446L78.1934 118.945C78.318 119.054 78.439 119.159 78.557 119.262L78.5571 119.262C78.8754 119.539 79.1719 119.797 79.4575 120.067C79.5101 120.117 79.5304 120.201 79.5566 120.309C79.5707 120.367 79.5865 120.433 79.61 120.504ZM100.753 71.2486L101.937 70.8272C101.819 70.3292 101.6 69.9278 101.015 69.8305C101.097 69.4285 101.372 69.3948 101.658 69.3598C101.855 69.3358 102.056 69.3112 102.203 69.166L101.859 68.446C101.894 68.1586 102.1 68.1222 102.317 68.0838C102.531 68.0459 102.757 68.0061 102.839 67.72C102.943 67.3648 103.193 67.4362 103.461 67.5126C103.637 67.5629 103.821 67.6154 103.975 67.5492C104.236 67.4835 104.511 67.4987 104.765 67.5928C105.116 67.6869 105.431 67.8683 105.748 68.0506C106.187 68.3038 106.63 68.5588 107.178 68.5841C107.329 68.5912 107.472 68.7924 107.635 69.0221C107.716 69.1369 107.803 69.2588 107.898 69.3671C107.437 69.4461 107.404 69.7699 107.37 70.0953C107.338 70.4043 107.306 70.7148 106.908 70.8184C106.918 70.9573 106.981 71.0947 107.045 71.235C107.193 71.5604 107.348 71.9015 106.882 72.3135L106.067 71.9542L106.141 72.3492L106.217 72.7593C105.9 73.1292 105.488 72.9501 105.196 72.8236L105.156 72.8062C104.21 72.3933 103.175 72.2283 102.15 72.3268C101.501 72.3837 100.932 72.1212 100.753 71.2486ZM71.4688 46.1573L72.108 43.8893C71.9944 43.7904 71.8798 43.6716 71.761 43.5484C71.4835 43.2608 71.1829 42.9491 70.818 42.8099C69.8932 42.436 68.9169 42.2078 67.924 42.1337C66.7801 42.0769 65.5797 42.2171 65.2934 43.7269C65.275 43.8237 65.194 43.9082 65.1026 44.0036C65.0551 44.0532 65.0047 44.1057 64.9589 44.1645C65.0568 44.2556 65.1449 44.3549 65.2289 44.4495C65.4004 44.6428 65.5544 44.8164 65.7387 44.8603C65.8627 44.8899 65.9872 44.9172 66.1114 44.9444C66.8513 45.1066 67.5805 45.2664 68.1176 45.8985C68.6833 45.9298 69.1542 46.1945 69.6215 46.4572C69.9018 46.6148 70.1808 46.7716 70.4783 46.877L71.4688 46.1573Z" fill="#F5D3AB"/>
</svg>
