<svg width="224" height="96" viewBox="0 0 224 96" fill="none" xmlns="http://www.w3.org/2000/svg">
<path fill-rule="evenodd" clip-rule="evenodd" d="M160.688 61.273C161.927 60.4834 163.167 59.6932 164.586 59.2171C162.934 60.3785 161.16 61.3577 159.297 62.1374C159.766 61.8601 160.227 61.5666 160.688 61.273ZM164.623 59.2005L165.363 58.9896C161.468 61.6263 157.273 63.7901 152.867 65.4357C146.602 67.713 140.035 69.0551 133.378 69.4188C126.858 69.7626 120.321 69.6466 113.817 69.0718C104.316 68.3063 94.8122 67.6625 85.2671 67.9154C77.4057 68.0724 69.6545 69.7805 62.4576 72.9419C59.6014 74.205 56.7699 75.5146 53.9468 77.0269C53.9636 76.6377 54.1861 76.5225 54.437 76.3925C54.6282 76.2935 54.836 76.1859 54.9821 75.9421C54.7155 76.0898 54.4359 76.2113 54.1714 76.3262C53.6224 76.5647 53.1385 76.7749 52.9716 77.1331C52.7405 77.7633 52.1847 78.2172 51.5213 78.3176C49.9942 78.3434 48.8638 79.135 47.7383 79.9231C47.2259 80.282 46.7145 80.6401 46.1672 80.9248C45.4974 81.2732 44.9268 81.7759 44.3519 82.2824C43.736 82.8249 43.1153 83.3717 42.3623 83.738C41.7625 84.0295 41.1877 84.3649 40.6126 84.7005C39.4141 85.3998 38.2142 86.1 36.7829 86.4061C35.8367 86.6089 34.9483 87.439 34.1456 88.2166C33.4029 88.9357 32.315 89.6405 31.3422 89.6934C30.3322 89.7486 29.5339 90.202 28.7379 90.6541L28.7377 90.6542C28.2439 90.9347 27.7509 91.2147 27.2087 91.3988C23.7571 92.6111 20.2359 93.6155 16.6639 94.4066C11.556 95.4344 6.35365 95.9223 1.14257 95.8623C-7.51621 95.8496 -14.9335 92.5441 -21.5914 87.2843C-28.2601 82.0145 -32.1811 75.2188 -32.8026 66.6296L-32.8149 66.4598C-33.1387 61.9933 -33.4625 57.5276 -33.3894 53.0482C-33.3654 50.1445 -32.962 47.2568 -32.1896 44.4586C-31.5336 42.1495 -31.5964 39.8072 -31.6591 37.4672L-31.6592 37.4648C-31.6641 37.2796 -31.6691 37.0945 -31.6737 36.9094C-31.8394 30.2471 -31.3241 23.6696 -29.3722 17.2667C-27.4003 10.8019 -24.054 5.06447 -19.8608 -0.18178C-14.2853 -7.15831 -7.36893 -12.6116 -0.0560736 -17.6481L0.375348 -17.9452L0.375402 -17.9453C10.7535 -25.0914 21.142 -32.2447 30.0864 -41.2271C36.4775 -47.6454 42.2717 -54.5322 46.5296 -62.602C48.4137 -66.1728 49.4269 -70.0112 50.2589 -73.9366C50.7856 -76.4214 51.2582 -78.9177 51.7307 -81.4139C52.574 -85.8688 53.4173 -90.3235 54.5683 -94.7123C55.8586 -99.6312 57.2971 -104.511 59.613 -109.065C63.6711 -117.047 68.6553 -124.387 75.4099 -130.325C82.6484 -136.689 90.7244 -141.587 100.437 -143.211C109.681 -144.757 118.46 -143.739 126.276 -138.115C130.549 -135.039 133.665 -130.888 136.218 -126.339C138.522 -122.232 140.62 -118.017 142.718 -113.802L142.718 -113.802L142.718 -113.802L142.718 -113.802L142.718 -113.802L142.718 -113.801L142.719 -113.801L142.719 -113.801L142.719 -113.801L142.719 -113.801C144.888 -109.442 147.058 -105.084 149.456 -100.843C150.007 -99.8687 150.552 -98.89 151.097 -97.9114C153.711 -93.2158 156.325 -88.5213 159.652 -84.2649C164.562 -77.9804 170.932 -73.7168 178.265 -70.76C181.365 -69.5077 184.5 -68.3475 187.635 -67.1872L187.639 -67.1859C189.484 -66.5028 191.33 -65.8196 193.168 -65.1177C199.12 -62.8455 204.903 -60.2318 210.105 -56.475C219.247 -49.8735 223.372 -40.7572 223.531 -29.6713C223.579 -23.22 222.652 -16.7997 220.782 -10.6279C220.123 -8.38082 219.32 -6.18983 218.519 -4.00512C218.379 -3.62407 218.24 -3.2432 218.101 -2.86225C217.246 -0.51299 216.16 1.74497 214.858 3.87821C214.317 4.76304 213.875 5.70562 213.431 6.65196L213.431 6.65223L213.431 6.6525C213.021 7.52712 212.609 8.40493 212.117 9.24334C208.424 15.5791 204.313 21.6608 199.811 27.448C197.1 30.9102 194.151 34.1602 191.182 37.3833C188.806 39.9611 186.277 42.4015 183.64 44.7478C182.997 45.3203 182.357 45.899 181.716 46.4783C180.19 47.8578 178.661 49.2402 177.078 50.5473C176.451 51.0644 175.732 51.4592 175.008 51.8569C174.338 52.2247 173.664 52.5951 173.053 53.0672C170.555 55.0641 167.913 56.8739 165.149 58.4819C164.869 58.6369 164.602 58.8173 164.623 59.2005ZM94.712 -135.689L94.576 -135.831C94.2082 -135.65 93.8362 -135.477 93.4642 -135.303C92.6479 -134.921 91.8316 -134.54 91.0603 -134.083C90.7784 -133.916 90.4961 -133.75 90.2139 -133.583C86.8336 -131.591 83.4646 -129.606 80.9598 -126.39C80.6395 -125.979 80.2094 -125.638 79.7692 -125.288C79.2319 -124.862 78.6794 -124.424 78.2935 -123.831C77.8169 -123.099 77.2028 -122.498 76.5828 -121.892C75.9533 -121.276 75.3178 -120.654 74.8143 -119.883C73.2729 -117.523 71.6463 -115.188 69.915 -112.953C69.1456 -111.96 68.5767 -110.866 68.0089 -109.774L68.0088 -109.774L68.0087 -109.774C67.7291 -109.236 67.4498 -108.7 67.147 -108.175C66.4889 -106.882 65.9026 -105.554 65.3908 -104.196C64.2961 -101.737 63.4107 -99.1901 62.7442 -96.5817C62.0902 -93.9431 61.5419 -91.2642 61.0316 -88.5846C60.8327 -87.5405 60.6511 -86.4922 60.4695 -85.4439C60.1913 -83.8374 59.913 -82.2307 59.5721 -80.6385C58.8889 -77.5551 58.406 -74.4304 58.1264 -71.284C58.0595 -70.4626 57.8306 -69.6997 57.6015 -68.9361L57.6015 -68.9359C57.3935 -68.2425 57.1853 -67.5486 57.0981 -66.8098C57.0031 -65.4546 56.7473 -64.1158 56.3362 -62.8215C55.4992 -60.5205 54.4914 -58.2855 53.3213 -56.1352C49.3557 -48.9732 44.2215 -42.7036 38.4864 -36.9147C38.2139 -36.6396 37.9438 -36.361 37.6735 -36.0822L37.6734 -36.0821L37.6733 -36.082L37.6733 -36.082L37.6732 -36.0819L37.6731 -36.0818L37.673 -36.0817L37.6729 -36.0817L37.6728 -36.0816C36.1907 -34.5529 34.7015 -33.0168 32.7607 -32.0077C32.0237 -31.6739 31.3618 -31.1948 30.8143 -30.599C29.8492 -29.4154 28.7051 -28.39 27.4235 -27.56C25.9494 -26.5814 24.5548 -25.5004 23.1593 -24.4187L23.1593 -24.4187C22.0211 -23.5364 20.8823 -22.6537 19.6991 -21.8256C15.4355 -18.8405 11.148 -15.8953 6.71922 -13.1701C5.48467 -12.4103 4.30457 -11.5746 3.12395 -10.7385L3.12389 -10.7385L3.12383 -10.7384L3.12377 -10.7384L3.12371 -10.7384L3.12365 -10.7383L3.12359 -10.7383L3.12353 -10.7383L3.12347 -10.7382L3.12341 -10.7382C1.72718 -9.74943 0.330212 -8.76015 -1.15839 -7.89538C-2.41398 -7.16549 -3.49213 -6.12598 -4.56837 -5.0883C-4.99815 -4.67391 -5.42763 -4.25983 -5.86798 -3.86586C-13.1644 2.66108 -18.8881 10.266 -21.627 19.8059C-21.7866 20.3624 -22.1128 20.7815 -22.4343 21.1945C-22.8115 21.6791 -23.1821 22.1554 -23.2695 22.8354C-23.996 28.5036 -24.8002 34.1605 -25.8424 39.7832C-26.5592 43.6506 -26.3997 47.5409 -26.2402 51.4319C-26.156 53.4853 -26.0718 55.5388 -26.1164 57.5893L-26.1185 57.6916L-26.1203 57.7834L-26.1203 57.7847C-26.1399 58.7989 -26.1409 58.8533 -26.9177 59.8787C-26.9783 59.9589 -26.9553 60.1067 -26.9331 60.2488C-26.9248 60.3019 -26.9166 60.3542 -26.913 60.4019C-26.8256 61.5604 -26.7708 62.7215 -26.716 63.8826C-26.6039 66.257 -26.4918 68.6309 -26.1009 70.981C-26.0412 71.3392 -25.9861 71.6991 -25.9309 72.0592C-25.6487 73.8995 -25.3655 75.7468 -24.4716 77.4206C-20.7457 84.3885 -14.8223 88.3427 -7.17776 89.7994C-2.86792 90.6203 1.49372 90.4702 5.84399 90.1184C14.7748 89.4225 23.4547 86.8408 31.3119 82.5434C34.4848 80.8151 37.6068 78.9981 40.7291 77.1809C45.3948 74.4655 50.0613 71.7496 54.8994 69.3286C62.7505 65.3256 71.3249 62.9371 80.1171 62.3039C90.784 61.5651 101.419 62.2173 112.055 62.9613C119.348 63.4708 126.645 63.7191 133.931 62.9113C144.177 61.7746 153.489 58.1318 162.066 52.4531C167.251 49.0347 172.194 45.2635 176.861 41.1664C189.633 29.9151 200.552 17.0931 209.22 2.38967C213.173 -4.31592 216.379 -11.3147 217.915 -19.0023C218.948 -24.1864 219.615 -29.3925 218.995 -34.6906C218.63 -37.7992 217.852 -40.7678 215.915 -43.308C213.546 -46.4254 210.635 -49.0903 207.323 -51.1747C201.311 -54.9638 194.697 -57.3788 188.081 -59.7945C187.276 -60.0883 186.471 -60.3822 185.667 -60.6785C178.398 -63.3591 171.205 -66.138 165.113 -71.2227C161.611 -74.0969 158.538 -77.4586 155.988 -81.205C149.759 -90.485 144.955 -100.542 140.153 -110.594L140.153 -110.595L139.585 -111.782C138.936 -113.142 138.319 -114.518 137.703 -115.893L137.702 -115.894C136.13 -119.403 134.557 -122.911 132.435 -126.148C130.454 -129.168 128.196 -131.929 125.18 -133.987C119.806 -137.547 113.36 -139.117 106.957 -138.424C106.78 -138.385 106.598 -138.381 106.419 -138.411C104.613 -138.922 102.999 -138.307 101.381 -137.691L101.38 -137.691C101.219 -137.63 101.059 -137.569 100.898 -137.509C100.786 -137.467 100.668 -137.415 100.549 -137.363C100.177 -137.2 99.7884 -137.03 99.4879 -137.121C98.7022 -137.357 98.097 -137.018 97.4806 -136.672C96.9807 -136.392 96.4734 -136.107 95.8563 -136.122C95.5209 -136.13 95.1022 -135.85 94.6474 -135.545C94.2803 -135.299 93.8898 -135.038 93.5006 -134.899L94.712 -135.689ZM54.438 71.037C58.8795 68.7118 63.5844 66.9289 68.4519 65.7263C63.0805 67.4871 57.8775 69.7244 52.9047 72.4116C48.6556 74.6501 44.5144 77.0776 40.3732 79.5052C38.3561 80.6876 36.3391 81.8699 34.3096 83.0304C32.3462 84.2002 30.284 85.1955 28.1467 86.0049C28.4371 85.3321 28.9911 85.1716 29.5294 85.0156C29.7922 84.9395 30.0513 84.8644 30.2741 84.7314C31.7084 83.8751 33.1624 83.0508 34.6163 82.2266C35.9882 81.4488 37.36 80.6711 38.7151 79.8667C43.8862 76.7974 49.0898 73.7879 54.438 71.037ZM89.355 -138.049C94.4893 -140.259 99.9088 -141.737 105.455 -142.44C99.8032 -142.356 94.2655 -140.845 89.355 -138.049ZM32.7046 -40.6383C37.4871 -44.9579 41.5977 -49.9684 44.9006 -55.5043C41.1102 -50.323 36.9785 -45.4229 32.7046 -40.6383ZM-22.0627 6.25398C-25.1767 11.0928 -27.803 16.1403 -28.5347 21.9628C-26.9851 16.4953 -24.8136 11.2246 -22.0627 6.25398ZM143.028 62.8618L143.028 62.8618C148.173 61.2354 153.318 59.6091 158.01 56.8345C152.982 60.1907 147.293 62.43 141.326 63.4017C141.888 63.2224 142.45 63.0445 143.013 62.8667L143.028 62.8618ZM82.3463 -134.224C82.5191 -134.155 82.6413 -134.1 82.7279 -134.06C82.8515 -134.004 82.9027 -133.981 82.9255 -133.998C84.5901 -135.25 86.383 -136.322 88.2741 -137.196C88.3628 -137.22 88.4377 -137.279 88.481 -137.36C88.5243 -137.442 88.5324 -137.537 88.5033 -137.624C88.3936 -137.919 88.1396 -137.874 87.9501 -137.755C86.5377 -136.874 85.1302 -135.984 83.6322 -135.037L83.6302 -135.036L83.6276 -135.034C83.2083 -134.769 82.7819 -134.499 82.3463 -134.224ZM48.6355 -50.1901C50.2691 -52.041 51.6068 -54.1336 52.6015 -56.3939L48.6355 -50.1901ZM46.7009 79.629C49.0119 78.84 49.9068 78.0919 49.718 76.905C49.6599 78.1082 48.9332 78.3699 48.1722 78.6438C47.6185 78.8432 47.0466 79.0491 46.7009 79.629ZM43.2677 82.7543L43.323 82.918L38.6557 85.5052L38.5733 85.3565L43.2677 82.7543Z" fill="#9EAD8D"/>
</svg>
